<svg width="77" height="77" viewBox="0 0 77 77" fill="none" xmlns="http://www.w3.org/2000/svg">
<path d="M6 45.5V65H10.5H17L19 63.5H23.5L30 67L37.5 70.5L40.5 69L54.5 60.5C57.3333 59 63.3 55.7 64.5 54.5C66 53 65.5 52.5 65.5 52C65.5 51.5 65 50 64 50C63.2 50 57.6667 51 55 51.5L39 54.5L31 47L18 46.5C18 45.7 17.3333 45.5 17 45.5H6Z" fill="#ECA213"/>
<path d="M40.9996 49L20.9996 28.5C18.6663 25.5 15.5996 17.5 21.9996 9.50002C24.6664 7.50002 31.3 4.30002 36.5 7.50002C39.3552 9.25706 40.6325 10.0895 41.0936 10.4279C43.2947 8.74201 47.7114 5.60571 48.5 6.00001C49.5 6.50002 55.5 5 61 11C65.4 15.8 62.8333 24.3333 61 28L50.5 39L40.9996 49Z" fill="#C4C4C4"/>
<path d="M40.9996 49L20.9996 28.5C18.6663 25.5 15.5996 17.5 21.9996 9.50002C24.6664 7.50002 31.3 4.30002 36.5 7.50002C39.3552 9.25706 40.6325 10.0895 41.0936 10.4279C43.2947 8.74201 47.7114 5.60571 48.5 6.00001C49.5 6.50002 55.5 5 61 11C65.4 15.8 62.8333 24.3333 61 28L50.5 39L40.9996 49Z" fill="#ECA213"/>
<path d="M66.0022 49.4352C65.113 48.6864 63.9382 48.3756 62.8054 48.5724L39.007 52.7112L32.2474 45.9516C32.023 45.726 31.7182 45.6 31.399 45.6H19.399C19.399 44.9376 18.8626 44.4 18.199 44.4H13.399H4.99902V46.8H12.199V63.6H4.99902V66H13.399H18.199C18.8626 66 19.399 65.4624 19.399 64.8H22.7158L35.545 71.2152C36.1006 71.4924 36.7006 71.6316 37.3006 71.6304C37.9822 71.6304 38.665 71.4516 39.2758 71.0952L65.455 55.824C66.6538 55.1232 67.399 53.8248 67.399 52.4364C67.399 51.276 66.889 50.1816 66.0022 49.4352ZM16.999 63.6H14.599V46.8H16.999V63.6ZM64.2442 53.7516L38.0662 69.0216C37.6222 69.2808 37.081 69.2988 36.619 69.0684L23.5366 62.5272C23.3698 62.4432 23.185 62.4 22.999 62.4H19.399V48H30.9022L40.357 57.4536C40.771 57.8688 40.999 58.4196 40.999 59.0052C40.999 60.216 40.015 61.2 38.8054 61.2C38.2282 61.2 37.663 60.966 37.2538 60.5568L31.0474 54.3516L29.3506 56.0484L35.557 62.2536C36.4246 63.1224 37.5766 63.6 38.8054 63.6C41.3374 63.6 43.399 61.5396 43.399 59.0052C43.399 57.7788 42.9214 56.6256 42.0538 55.7568L41.083 54.786L63.2158 50.9364C63.6622 50.8584 64.1122 50.982 64.4566 51.2712C64.801 51.5616 64.999 51.9864 64.999 52.4364C64.999 52.9752 64.7098 53.4792 64.2442 53.7516Z" fill="#C78608"/>
<path d="M40.1281 50.0256C40.3561 50.2644 40.6705 50.4 40.9993 50.4C41.3281 50.4 41.6425 50.2644 41.8706 50.0256L60.9002 29.976C66.3506 24.2328 66.3506 14.8884 60.9002 9.14639C58.2398 6.34319 54.6985 4.79999 50.9281 4.79999C47.1769 4.79999 43.6537 6.32639 40.9993 9.10079C38.3449 6.32639 34.8217 4.79999 31.0705 4.79999C27.3001 4.79999 23.7589 6.34319 21.0985 9.14639C15.6481 14.8896 15.6481 24.234 21.0985 29.976L40.1281 50.0256ZM22.8397 10.7988C25.0417 8.47799 27.9649 7.19999 31.0705 7.19999C34.1773 7.19999 37.0993 8.47799 39.3013 10.7988L40.1281 11.6712C40.5829 12.1476 41.4145 12.1476 41.8693 11.6712L42.6961 10.7988C44.8993 8.47799 47.8225 7.19999 50.9281 7.19999C54.0337 7.19999 56.9557 8.47799 59.1577 10.7988C63.7442 15.63 63.7442 23.4924 59.1577 28.3236L40.9993 47.4564L22.8397 28.3236C18.2533 23.4924 18.2533 15.63 22.8397 10.7988Z" fill="#C78608"/>
<path d="M46.1118 18.1955L34.1113 31.3947L35.888 33.01L47.8884 19.8108L46.1118 18.1955Z" fill="url(#paint0_linear)"/>
<path d="M46.1118 18.1955L34.1113 31.3947L35.888 33.01L47.8884 19.8108L46.1118 18.1955Z" fill="#A86F00"/>
<path d="M36.1986 25.6C38.1834 25.6 39.7986 23.9848 39.7986 22C39.7986 20.0152 38.1834 18.4 36.1986 18.4C34.2138 18.4 32.5986 20.0152 32.5986 22C32.5986 23.9848 34.2138 25.6 36.1986 25.6ZM36.1986 20.8C36.861 20.8 37.3986 21.3388 37.3986 22C37.3986 22.6612 36.861 23.2 36.1986 23.2C35.5362 23.2 34.9986 22.6612 34.9986 22C34.9986 21.3388 35.5362 20.8 36.1986 20.8Z" fill="url(#paint1_linear)"/>
<path d="M36.1986 25.6C38.1834 25.6 39.7986 23.9848 39.7986 22C39.7986 20.0152 38.1834 18.4 36.1986 18.4C34.2138 18.4 32.5986 20.0152 32.5986 22C32.5986 23.9848 34.2138 25.6 36.1986 25.6ZM36.1986 20.8C36.861 20.8 37.3986 21.3388 37.3986 22C37.3986 22.6612 36.861 23.2 36.1986 23.2C35.5362 23.2 34.9986 22.6612 34.9986 22C34.9986 21.3388 35.5362 20.8 36.1986 20.8Z" fill="#A86F00"/>
<path d="M42.1992 29.2C42.1992 31.1848 43.8144 32.8 45.7992 32.8C47.784 32.8 49.3992 31.1848 49.3992 29.2C49.3992 27.2152 47.784 25.6 45.7992 25.6C43.8144 25.6 42.1992 27.2152 42.1992 29.2ZM46.9992 29.2C46.9992 29.8612 46.4616 30.4 45.7992 30.4C45.1368 30.4 44.5992 29.8612 44.5992 29.2C44.5992 28.5388 45.1368 28 45.7992 28C46.4616 28 46.9992 28.5388 46.9992 29.2Z" fill="url(#paint2_linear)"/>
<path d="M42.1992 29.2C42.1992 31.1848 43.8144 32.8 45.7992 32.8C47.784 32.8 49.3992 31.1848 49.3992 29.2C49.3992 27.2152 47.784 25.6 45.7992 25.6C43.8144 25.6 42.1992 27.2152 42.1992 29.2ZM46.9992 29.2C46.9992 29.8612 46.4616 30.4 45.7992 30.4C45.1368 30.4 44.5992 29.8612 44.5992 29.2C44.5992 28.5388 45.1368 28 45.7992 28C46.4616 28 46.9992 28.5388 46.9992 29.2Z" fill="#A86F00"/>
<defs>
<linearGradient id="paint0_linear" x1="40.1115" y1="24.7951" x2="41.8882" y2="26.4104" gradientUnits="userSpaceOnUse">
<stop stop-color="#C78608"/>
<stop offset="1" stop-color="#ECA213"/>
</linearGradient>
<linearGradient id="paint1_linear" x1="36.1986" y1="18.4" x2="36.1986" y2="25.6" gradientUnits="userSpaceOnUse">
<stop stop-color="#C78608"/>
<stop offset="1" stop-color="#ECA213"/>
</linearGradient>
<linearGradient id="paint2_linear" x1="45.7992" y1="25.6" x2="45.7992" y2="32.8" gradientUnits="userSpaceOnUse">
<stop stop-color="#C78608"/>
<stop offset="1" stop-color="#ECA213"/>
</linearGradient>
</defs>
</svg>
