<svg width="33" height="33" viewBox="0 0 33 33" fill="none" xmlns="http://www.w3.org/2000/svg">
<path d="M32.3636 29.5578C31.4241 27.4451 26.8384 26.0473 23.7915 24.7348C20.7446 23.4224 21.1611 22.6268 21.0515 21.5385C21.0327 21.3507 21.0218 21.1477 21.0166 20.9412C21.9772 20.0409 22.6385 18.8133 23.1873 17.397C23.1873 17.397 23.2163 17.3244 23.2246 17.3023C23.3411 16.9921 23.445 16.669 23.5341 16.339C24.2327 16.201 24.6396 15.4595 24.7951 14.7738C24.9521 14.4963 25.2788 13.8122 25.2036 13.036C25.1072 12.0368 24.6944 11.5751 24.2301 11.3817C24.2308 11.3217 24.2311 11.2646 24.2311 11.2085C24.2311 9.93633 24.1096 8.68101 23.8707 7.47783C23.8192 7.14585 23.7427 6.81156 23.6424 6.48354C23.3569 5.54832 22.8731 4.67316 22.2369 3.92076C22.2699 3.57954 22.2927 2.98158 22.1089 2.59515C21.8396 2.02821 20.9614 1.81965 20.973 1.55268C21.0225 0.445527 18.8943 0.835587 18.8854 0.743517C18.7495 0.0805471 17.2915 -0.0534329 16.6467 0.220467C16.0019 0.494697 15.7557 0.597657 15.1798 0.549477C13.9968 0.450147 12.5484 0.708867 12.1696 1.99917C12.1524 2.05758 12.1386 2.11335 12.1264 2.16813C11.7643 2.23017 11.4885 2.54433 11.4885 2.92416C11.4885 3.03339 11.5102 3.105 11.5492 3.15219C10.5384 4.04583 9.78138 5.20842 9.39231 6.48321C9.29232 6.81123 9.21543 7.14552 9.16428 7.4775C8.92503 8.68035 8.80392 9.93534 8.80392 11.2081C8.80392 11.26 8.80425 11.3124 8.80491 11.3672C8.32674 11.5517 7.89543 12.0114 7.79643 13.0354C7.72152 13.8115 8.04822 14.4956 8.20497 14.7731C8.36304 15.4708 8.78181 16.2261 9.50253 16.3449C9.59196 16.6762 9.69723 17.0016 9.81537 17.3145C9.82296 17.3349 9.83121 17.3547 9.83913 17.3749L9.85002 17.4019C10.4107 18.8457 11.0865 20.0941 12.0798 20.9976C12.0742 21.1844 12.0637 21.3672 12.0465 21.5378C11.9373 22.6261 12.2574 23.4221 9.21048 24.7342C6.16359 26.0466 1.5779 27.4448 0.638394 29.5571C-0.301446 31.6695 0.0740939 32.9126 0.0740939 32.9126H32.9246C32.9246 32.9132 33.3035 31.6705 32.3636 29.5578Z" fill="#3884D1"/>
<path d="M32.3636 29.5578C31.4241 27.4451 26.8384 26.0473 23.7915 24.7348C20.7446 23.4224 21.1611 22.6268 21.0515 21.5385C21.0327 21.3507 21.0218 21.1477 21.0166 20.9412C21.9772 20.0409 22.6385 18.8133 23.1873 17.397C23.1873 17.397 23.2163 17.3244 23.2246 17.3023C23.3411 16.9921 23.445 16.669 23.5341 16.339C24.2327 16.201 24.6396 15.4595 24.7951 14.7738C24.9521 14.4963 25.2788 13.8122 25.2036 13.036C25.1072 12.0368 24.6944 11.5751 24.2301 11.3817C24.2308 11.3217 24.2311 11.2646 24.2311 11.2085C24.2311 9.93633 24.1096 8.68101 23.8707 7.47783C23.8192 7.14585 23.7427 6.81156 23.6424 6.48354C23.3569 5.54832 22.8731 4.67316 22.2369 3.92076C22.2699 3.57954 22.2927 2.98158 22.1089 2.59515C21.8396 2.02821 20.9614 1.81965 20.973 1.55268C21.0225 0.445527 18.8943 0.835587 18.8854 0.743517C18.7495 0.0805471 17.2915 -0.0534329 16.6467 0.220467C16.0019 0.494697 15.7557 0.597657 15.1798 0.549477C13.9968 0.450147 12.5484 0.708867 12.1696 1.99917C12.1524 2.05758 12.1386 2.11335 12.1264 2.16813C11.7643 2.23017 11.4885 2.54433 11.4885 2.92416C11.4885 3.03339 11.5102 3.105 11.5492 3.15219C10.5384 4.04583 9.78138 5.20842 9.39231 6.48321C9.29232 6.81123 9.21543 7.14552 9.16428 7.4775C8.92503 8.68035 8.80392 9.93534 8.80392 11.2081C8.80392 11.26 8.80425 11.3124 8.80491 11.3672C8.32674 11.5517 7.89543 12.0114 7.79643 13.0354C7.72152 13.8115 8.04822 14.4956 8.20497 14.7731C8.36304 15.4708 8.78181 16.2261 9.50253 16.3449C9.59196 16.6762 9.69723 17.0016 9.81537 17.3145C9.82296 17.3349 9.83121 17.3547 9.83913 17.3749L9.85002 17.4019C10.4107 18.8457 11.0865 20.0941 12.0798 20.9976C12.0742 21.1844 12.0637 21.3672 12.0465 21.5378C11.9373 22.6261 12.2574 23.4221 9.21048 24.7342C6.16359 26.0466 1.5779 27.4448 0.638394 29.5571C-0.301446 31.6695 0.0740939 32.9126 0.0740939 32.9126H32.9246C32.9246 32.9132 33.3035 31.6705 32.3636 29.5578Z" fill="url(#paint0_linear)"/>
<defs>
<linearGradient id="paint0_linear" x1="16.5" y1="0.086792" x2="16.5" y2="32.9126" gradientUnits="userSpaceOnUse">
<stop stop-color="#3884D1"/>
<stop offset="1" stop-color="#296CAF"/>
</linearGradient>
</defs>
</svg>
