<svg width="104" height="52" viewBox="0 0 104 52" fill="none" xmlns="http://www.w3.org/2000/svg">
<g clip-path="url(#clip0)">
<path d="M32.6793 18.9677C32.699 18.9677 32.7188 18.9671 32.7386 18.966C33.292 18.9332 33.7141 18.4587 33.6818 17.9052C33.6325 17.071 33.6103 16.311 33.6105 15.6196C33.6064 12.5821 34.0491 10.8755 34.4841 9.98492V28.8011C34.4841 29.6579 35.1786 30.3519 36.0349 30.3519C36.8914 30.3519 37.5859 29.6579 37.5859 28.8011V17.4776H38.1673V28.8011C38.1673 29.6579 38.8619 30.3519 39.7181 30.3519C40.5746 30.3519 41.2692 29.6579 41.2692 28.8011V9.99057C41.3436 10.1431 41.4185 10.3181 41.4925 10.5222C41.846 11.5021 42.1436 13.1099 42.1425 15.6199C42.1425 16.3113 42.1202 17.0713 42.0715 17.9056C42.0391 18.4588 42.4615 18.9336 43.0149 18.9658C43.0347 18.967 43.0544 18.9676 43.0741 18.9676C43.6016 18.9676 44.0441 18.556 44.0751 18.0224C44.1257 17.1529 44.1493 16.3543 44.1493 15.6199C44.1444 11.8336 43.5395 9.73831 42.715 8.47828C42.3029 7.85297 41.821 7.45169 41.3754 7.22966C40.9466 7.0134 40.5696 6.96461 40.3436 6.96185C40.3289 6.96122 40.3145 6.95972 40.2996 6.95972H35.4535C35.4375 6.95972 35.422 6.96135 35.4063 6.9621C35.1799 6.96498 34.8045 7.01416 34.3772 7.22966C33.7025 7.56421 32.9751 8.29614 32.4662 9.59293C31.951 10.8949 31.6053 12.7772 31.6035 15.6196C31.6035 16.3541 31.6271 17.153 31.6782 18.0227C31.7094 18.556 32.1518 18.9676 32.6793 18.9677Z" fill="#C9E3FE"/>
<path d="M32.6793 18.9677C32.699 18.9677 32.7188 18.9671 32.7386 18.966C33.292 18.9332 33.7141 18.4587 33.6818 17.9052C33.6325 17.071 33.6103 16.311 33.6105 15.6196C33.6064 12.5821 34.0491 10.8755 34.4841 9.98492V28.8011C34.4841 29.6579 35.1786 30.3519 36.0349 30.3519C36.8914 30.3519 37.5859 29.6579 37.5859 28.8011V17.4776H38.1673V28.8011C38.1673 29.6579 38.8619 30.3519 39.7181 30.3519C40.5746 30.3519 41.2692 29.6579 41.2692 28.8011V9.99057C41.3436 10.1431 41.4185 10.3181 41.4925 10.5222C41.846 11.5021 42.1436 13.1099 42.1425 15.6199C42.1425 16.3113 42.1202 17.0713 42.0715 17.9056C42.0391 18.4588 42.4615 18.9336 43.0149 18.9658C43.0347 18.967 43.0544 18.9676 43.0741 18.9676C43.6016 18.9676 44.0441 18.556 44.0751 18.0224C44.1257 17.1529 44.1493 16.3543 44.1493 15.6199C44.1444 11.8336 43.5395 9.73831 42.715 8.47828C42.3029 7.85297 41.821 7.45169 41.3754 7.22966C40.9466 7.0134 40.5696 6.96461 40.3436 6.96185C40.3289 6.96122 40.3145 6.95972 40.2996 6.95972H35.4535C35.4375 6.95972 35.422 6.96135 35.4063 6.9621C35.1799 6.96498 34.8045 7.01416 34.3772 7.22966C33.7025 7.56421 32.9751 8.29614 32.4662 9.59293C31.951 10.8949 31.6053 12.7772 31.6035 15.6196C31.6035 16.3541 31.6271 17.153 31.6782 18.0227C31.7094 18.556 32.1518 18.9676 32.6793 18.9677Z" fill="url(#paint0_linear)"/>
<path d="M37.8761 6.24484C39.4348 6.24484 40.6985 4.98122 40.6985 3.42247C40.6985 1.86372 39.4348 0.600098 37.8761 0.600098C36.3173 0.600098 35.0537 1.86372 35.0537 3.42247C35.0537 4.98122 36.3173 6.24484 37.8761 6.24484Z" fill="#C9E3FE"/>
<path d="M37.8761 6.24484C39.4348 6.24484 40.6985 4.98122 40.6985 3.42247C40.6985 1.86372 39.4348 0.600098 37.8761 0.600098C36.3173 0.600098 35.0537 1.86372 35.0537 3.42247C35.0537 4.98122 36.3173 6.24484 37.8761 6.24484Z" fill="url(#paint1_linear)"/>
</g>
<g clip-path="url(#clip1)">
<path d="M58.359 18.9677C58.3787 18.9677 58.3985 18.9671 58.4183 18.966C58.9717 18.9332 59.3938 18.4587 59.3615 17.9052C59.3122 17.071 59.29 16.311 59.2902 15.6196C59.2861 12.5821 59.7288 10.8755 60.1638 9.98492V28.8011C60.1638 29.6579 60.8583 30.3519 61.7146 30.3519C62.5711 30.3519 63.2656 29.6579 63.2656 28.8011V17.4776H63.847V28.8011C63.847 29.6579 64.5416 30.3519 65.3978 30.3519C66.2543 30.3519 66.9489 29.6579 66.9489 28.8011V9.99057C67.0233 10.1431 67.0982 10.3181 67.1722 10.5222C67.5256 11.5021 67.8233 13.1099 67.8222 15.6199C67.8222 16.3113 67.7999 17.0713 67.7512 17.9056C67.7188 18.4588 68.1412 18.9336 68.6946 18.9658C68.7144 18.967 68.7341 18.9676 68.7538 18.9676C69.2813 18.9676 69.7238 18.556 69.7548 18.0224C69.8054 17.1529 69.829 16.3543 69.829 15.6199C69.8241 11.8336 69.2192 9.73831 68.3947 8.47828C67.9826 7.85297 67.5007 7.45169 67.0551 7.22966C66.6263 7.0134 66.2493 6.96461 66.0233 6.96185C66.0086 6.96122 65.9942 6.95972 65.9792 6.95972H61.1332C61.1172 6.95972 61.1017 6.96135 61.086 6.9621C60.8596 6.96498 60.4841 7.01416 60.0569 7.22966C59.3822 7.56421 58.6547 8.29614 58.1458 9.59293C57.6307 10.8949 57.285 12.7772 57.2832 15.6196C57.2832 16.3541 57.3068 17.153 57.3578 18.0227C57.3891 18.556 57.8315 18.9676 58.359 18.9677Z" fill="#C9E3FE"/>
<path d="M58.359 18.9677C58.3787 18.9677 58.3985 18.9671 58.4183 18.966C58.9717 18.9332 59.3938 18.4587 59.3615 17.9052C59.3122 17.071 59.29 16.311 59.2902 15.6196C59.2861 12.5821 59.7288 10.8755 60.1638 9.98492V28.8011C60.1638 29.6579 60.8583 30.3519 61.7146 30.3519C62.5711 30.3519 63.2656 29.6579 63.2656 28.8011V17.4776H63.847V28.8011C63.847 29.6579 64.5416 30.3519 65.3978 30.3519C66.2543 30.3519 66.9489 29.6579 66.9489 28.8011V9.99057C67.0233 10.1431 67.0982 10.3181 67.1722 10.5222C67.5256 11.5021 67.8233 13.1099 67.8222 15.6199C67.8222 16.3113 67.7999 17.0713 67.7512 17.9056C67.7188 18.4588 68.1412 18.9336 68.6946 18.9658C68.7144 18.967 68.7341 18.9676 68.7538 18.9676C69.2813 18.9676 69.7238 18.556 69.7548 18.0224C69.8054 17.1529 69.829 16.3543 69.829 15.6199C69.8241 11.8336 69.2192 9.73831 68.3947 8.47828C67.9826 7.85297 67.5007 7.45169 67.0551 7.22966C66.6263 7.0134 66.2493 6.96461 66.0233 6.96185C66.0086 6.96122 65.9942 6.95972 65.9792 6.95972H61.1332C61.1172 6.95972 61.1017 6.96135 61.086 6.9621C60.8596 6.96498 60.4841 7.01416 60.0569 7.22966C59.3822 7.56421 58.6547 8.29614 58.1458 9.59293C57.6307 10.8949 57.285 12.7772 57.2832 15.6196C57.2832 16.3541 57.3068 17.153 57.3578 18.0227C57.3891 18.556 57.8315 18.9676 58.359 18.9677Z" fill="url(#paint2_linear)"/>
<path d="M63.5558 6.24484C65.1145 6.24484 66.3781 4.98122 66.3781 3.42247C66.3781 1.86372 65.1145 0.600098 63.5558 0.600098C61.997 0.600098 60.7334 1.86372 60.7334 3.42247C60.7334 4.98122 61.997 6.24484 63.5558 6.24484Z" fill="#C9E3FE"/>
<path d="M63.5558 6.24484C65.1145 6.24484 66.3781 4.98122 66.3781 3.42247C66.3781 1.86372 65.1145 0.600098 63.5558 0.600098C61.997 0.600098 60.7334 1.86372 60.7334 3.42247C60.7334 4.98122 61.997 6.24484 63.5558 6.24484Z" fill="url(#paint3_linear)"/>
</g>
<g clip-path="url(#clip2)">
<path d="M83.7281 18.9677C83.7478 18.9677 83.7676 18.9671 83.7874 18.966C84.3409 18.9332 84.763 18.4587 84.7306 17.9052C84.6813 17.071 84.6591 16.311 84.6594 15.6196C84.6552 12.5821 85.0979 10.8755 85.5329 9.98492V28.8011C85.5329 29.6579 86.2275 30.3519 87.0837 30.3519C87.9402 30.3519 88.6348 29.6579 88.6348 28.8011V17.4776H89.2162V28.8011C89.2162 29.6579 89.9107 30.3519 90.767 30.3519C91.6235 30.3519 92.318 29.6579 92.318 28.8011V9.99057C92.3924 10.1431 92.4673 10.3181 92.5413 10.5222C92.8948 11.5021 93.1925 13.1099 93.1913 15.6199C93.1913 16.3113 93.169 17.0713 93.1203 17.9056C93.088 18.4588 93.5103 18.9336 94.0637 18.9658C94.0836 18.967 94.1033 18.9676 94.123 18.9676C94.6504 18.9676 95.093 18.556 95.124 18.0224C95.1745 17.1529 95.1981 16.3543 95.1981 15.6199C95.1932 11.8336 94.5883 9.73831 93.7638 8.47828C93.3518 7.85297 92.8698 7.45169 92.4243 7.22966C91.9954 7.0134 91.6184 6.96461 91.3924 6.96185C91.3777 6.96122 91.3633 6.95972 91.3484 6.95972H86.5023C86.4864 6.95972 86.4708 6.96135 86.4551 6.9621C86.2287 6.96498 85.8533 7.01416 85.426 7.22966C84.7513 7.56421 84.0239 8.29614 83.515 9.59293C82.9998 10.8949 82.6541 12.7772 82.6523 15.6196C82.6523 16.3541 82.6759 17.153 82.727 18.0227C82.7582 18.556 83.2006 18.9676 83.7281 18.9677Z" fill="#C9E3FE"/>
<path d="M83.7281 18.9677C83.7478 18.9677 83.7676 18.9671 83.7874 18.966C84.3409 18.9332 84.763 18.4587 84.7306 17.9052C84.6813 17.071 84.6591 16.311 84.6594 15.6196C84.6552 12.5821 85.0979 10.8755 85.5329 9.98492V28.8011C85.5329 29.6579 86.2275 30.3519 87.0837 30.3519C87.9402 30.3519 88.6348 29.6579 88.6348 28.8011V17.4776H89.2162V28.8011C89.2162 29.6579 89.9107 30.3519 90.767 30.3519C91.6235 30.3519 92.318 29.6579 92.318 28.8011V9.99057C92.3924 10.1431 92.4673 10.3181 92.5413 10.5222C92.8948 11.5021 93.1925 13.1099 93.1913 15.6199C93.1913 16.3113 93.169 17.0713 93.1203 17.9056C93.088 18.4588 93.5103 18.9336 94.0637 18.9658C94.0836 18.967 94.1033 18.9676 94.123 18.9676C94.6504 18.9676 95.093 18.556 95.124 18.0224C95.1745 17.1529 95.1981 16.3543 95.1981 15.6199C95.1932 11.8336 94.5883 9.73831 93.7638 8.47828C93.3518 7.85297 92.8698 7.45169 92.4243 7.22966C91.9954 7.0134 91.6184 6.96461 91.3924 6.96185C91.3777 6.96122 91.3633 6.95972 91.3484 6.95972H86.5023C86.4864 6.95972 86.4708 6.96135 86.4551 6.9621C86.2287 6.96498 85.8533 7.01416 85.426 7.22966C84.7513 7.56421 84.0239 8.29614 83.515 9.59293C82.9998 10.8949 82.6541 12.7772 82.6523 15.6196C82.6523 16.3541 82.6759 17.153 82.727 18.0227C82.7582 18.556 83.2006 18.9676 83.7281 18.9677Z" fill="url(#paint4_linear)"/>
<path d="M88.9249 6.24484C90.4837 6.24484 91.7473 4.98122 91.7473 3.42247C91.7473 1.86372 90.4837 0.600098 88.9249 0.600098C87.3662 0.600098 86.1025 1.86372 86.1025 3.42247C86.1025 4.98122 87.3662 6.24484 88.9249 6.24484Z" fill="#C9E3FE"/>
<path d="M88.9249 6.24484C90.4837 6.24484 91.7473 4.98122 91.7473 3.42247C91.7473 1.86372 90.4837 0.600098 88.9249 0.600098C87.3662 0.600098 86.1025 1.86372 86.1025 3.42247C86.1025 4.98122 87.3662 6.24484 88.9249 6.24484Z" fill="url(#paint5_linear)"/>
</g>
<g clip-path="url(#clip3)">
<path d="M25.4801 25.3677C25.4998 25.3677 25.5196 25.3671 25.5394 25.366C26.0928 25.3332 26.5149 24.8587 26.4826 24.3053C26.4333 23.471 26.4111 22.7111 26.4113 22.0197C26.4072 18.9822 26.8498 17.2756 27.2849 16.3849V35.2011C27.2849 36.0579 27.9794 36.7519 28.8357 36.7519C29.6922 36.7519 30.3867 36.0579 30.3867 35.2011V23.8777H30.9681V35.2011C30.9681 36.0579 31.6627 36.7519 32.5189 36.7519C33.3754 36.7519 34.07 36.0579 34.07 35.2011V16.3906C34.1444 16.5431 34.2192 16.7181 34.2933 16.9222C34.6467 17.9021 34.9444 19.5099 34.9433 22.0199C34.9433 22.7113 34.9209 23.4714 34.8723 24.3056C34.8399 24.8588 35.2623 25.3336 35.8157 25.3659C35.8355 25.367 35.8552 25.3676 35.8749 25.3676C36.4024 25.3676 36.8449 24.956 36.8759 24.4224C36.9265 23.5529 36.95 22.7543 36.95 22.0199C36.9452 18.2337 36.3403 16.1383 35.5158 14.8783C35.1037 14.253 34.6218 13.8517 34.1762 13.6297C33.7473 13.4134 33.3704 13.3646 33.1444 13.3619C33.1297 13.3612 33.1153 13.3597 33.1003 13.3597H28.2543C28.2383 13.3597 28.2228 13.3614 28.2071 13.3621C27.9807 13.365 27.6052 13.4142 27.178 13.6297C26.5033 13.9642 25.7758 14.6962 25.2669 15.993C24.7518 17.2949 24.4061 19.1772 24.4043 22.0197C24.4043 22.7541 24.4279 23.553 24.4789 24.4227C24.5102 24.956 24.9526 25.3676 25.4801 25.3677Z" fill="url(#paint6_linear)"/>
<path d="M30.6769 12.6449C32.2356 12.6449 33.4992 11.3812 33.4992 9.82249C33.4992 8.26374 32.2356 7.00012 30.6769 7.00012C29.1181 7.00012 27.8545 8.26374 27.8545 9.82249C27.8545 11.3812 29.1181 12.6449 30.6769 12.6449Z" fill="url(#paint7_linear)"/>
</g>
<g clip-path="url(#clip4)">
<path d="M51.1597 25.3677C51.1794 25.3677 51.1993 25.3671 51.2191 25.366C51.7725 25.3332 52.1946 24.8587 52.1623 24.3053C52.113 23.471 52.0908 22.7111 52.091 22.0197C52.0869 18.9822 52.5295 17.2756 52.9646 16.3849V35.2011C52.9646 36.0579 53.6591 36.7519 54.5154 36.7519C55.3719 36.7519 56.0664 36.0579 56.0664 35.2011V23.8777H56.6478V35.2011C56.6478 36.0579 57.3424 36.7519 58.1986 36.7519C59.0551 36.7519 59.7497 36.0579 59.7497 35.2011V16.3906C59.824 16.5431 59.8989 16.7181 59.9729 16.9222C60.3264 17.9021 60.6241 19.5099 60.623 22.0199C60.623 22.7113 60.6006 23.4714 60.552 24.3056C60.5196 24.8588 60.942 25.3336 61.4954 25.3659C61.5152 25.367 61.5349 25.3676 61.5546 25.3676C62.0821 25.3676 62.5246 24.956 62.5556 24.4224C62.6061 23.5529 62.6297 22.7543 62.6297 22.0199C62.6248 18.2337 62.02 16.1383 61.1955 14.8783C60.7834 14.253 60.3015 13.8517 59.8559 13.6297C59.427 13.4134 59.0501 13.3646 58.824 13.3619C58.8094 13.3612 58.7949 13.3597 58.78 13.3597H53.9339C53.918 13.3597 53.9025 13.3614 53.8868 13.3621C53.6604 13.365 53.2849 13.4142 52.8577 13.6297C52.1829 13.9642 51.4555 14.6962 50.9466 15.993C50.4314 17.2949 50.0857 19.1772 50.084 22.0197C50.084 22.7541 50.1076 23.553 50.1586 24.4227C50.1899 24.956 50.6323 25.3676 51.1597 25.3677Z" fill="#C9E3FE"/>
<path d="M51.1597 25.3677C51.1794 25.3677 51.1993 25.3671 51.2191 25.366C51.7725 25.3332 52.1946 24.8587 52.1623 24.3053C52.113 23.471 52.0908 22.7111 52.091 22.0197C52.0869 18.9822 52.5295 17.2756 52.9646 16.3849V35.2011C52.9646 36.0579 53.6591 36.7519 54.5154 36.7519C55.3719 36.7519 56.0664 36.0579 56.0664 35.2011V23.8777H56.6478V35.2011C56.6478 36.0579 57.3424 36.7519 58.1986 36.7519C59.0551 36.7519 59.7497 36.0579 59.7497 35.2011V16.3906C59.824 16.5431 59.8989 16.7181 59.9729 16.9222C60.3264 17.9021 60.6241 19.5099 60.623 22.0199C60.623 22.7113 60.6006 23.4714 60.552 24.3056C60.5196 24.8588 60.942 25.3336 61.4954 25.3659C61.5152 25.367 61.5349 25.3676 61.5546 25.3676C62.0821 25.3676 62.5246 24.956 62.5556 24.4224C62.6061 23.5529 62.6297 22.7543 62.6297 22.0199C62.6248 18.2337 62.02 16.1383 61.1955 14.8783C60.7834 14.253 60.3015 13.8517 59.8559 13.6297C59.427 13.4134 59.0501 13.3646 58.824 13.3619C58.8094 13.3612 58.7949 13.3597 58.78 13.3597H53.9339C53.918 13.3597 53.9025 13.3614 53.8868 13.3621C53.6604 13.365 53.2849 13.4142 52.8577 13.6297C52.1829 13.9642 51.4555 14.6962 50.9466 15.993C50.4314 17.2949 50.0857 19.1772 50.084 22.0197C50.084 22.7541 50.1076 23.553 50.1586 24.4227C50.1899 24.956 50.6323 25.3676 51.1597 25.3677Z" fill="#C9E3FE"/>
<path d="M51.1597 25.3677C51.1794 25.3677 51.1993 25.3671 51.2191 25.366C51.7725 25.3332 52.1946 24.8587 52.1623 24.3053C52.113 23.471 52.0908 22.7111 52.091 22.0197C52.0869 18.9822 52.5295 17.2756 52.9646 16.3849V35.2011C52.9646 36.0579 53.6591 36.7519 54.5154 36.7519C55.3719 36.7519 56.0664 36.0579 56.0664 35.2011V23.8777H56.6478V35.2011C56.6478 36.0579 57.3424 36.7519 58.1986 36.7519C59.0551 36.7519 59.7497 36.0579 59.7497 35.2011V16.3906C59.824 16.5431 59.8989 16.7181 59.9729 16.9222C60.3264 17.9021 60.6241 19.5099 60.623 22.0199C60.623 22.7113 60.6006 23.4714 60.552 24.3056C60.5196 24.8588 60.942 25.3336 61.4954 25.3659C61.5152 25.367 61.5349 25.3676 61.5546 25.3676C62.0821 25.3676 62.5246 24.956 62.5556 24.4224C62.6061 23.5529 62.6297 22.7543 62.6297 22.0199C62.6248 18.2337 62.02 16.1383 61.1955 14.8783C60.7834 14.253 60.3015 13.8517 59.8559 13.6297C59.427 13.4134 59.0501 13.3646 58.824 13.3619C58.8094 13.3612 58.7949 13.3597 58.78 13.3597H53.9339C53.918 13.3597 53.9025 13.3614 53.8868 13.3621C53.6604 13.365 53.2849 13.4142 52.8577 13.6297C52.1829 13.9642 51.4555 14.6962 50.9466 15.993C50.4314 17.2949 50.0857 19.1772 50.084 22.0197C50.084 22.7541 50.1076 23.553 50.1586 24.4227C50.1899 24.956 50.6323 25.3676 51.1597 25.3677Z" fill="url(#paint8_linear)"/>
<path d="M56.3566 12.6449C57.9153 12.6449 59.1789 11.3812 59.1789 9.82249C59.1789 8.26374 57.9153 7.00012 56.3566 7.00012C54.7978 7.00012 53.5342 8.26374 53.5342 9.82249C53.5342 11.3812 54.7978 12.6449 56.3566 12.6449Z" fill="#C9E3FE"/>
<path d="M56.3566 12.6449C57.9153 12.6449 59.1789 11.3812 59.1789 9.82249C59.1789 8.26374 57.9153 7.00012 56.3566 7.00012C54.7978 7.00012 53.5342 8.26374 53.5342 9.82249C53.5342 11.3812 54.7978 12.6449 56.3566 12.6449Z" fill="#C9E3FE"/>
<path d="M56.3566 12.6449C57.9153 12.6449 59.1789 11.3812 59.1789 9.82249C59.1789 8.26374 57.9153 7.00012 56.3566 7.00012C54.7978 7.00012 53.5342 8.26374 53.5342 9.82249C53.5342 11.3812 54.7978 12.6449 56.3566 12.6449Z" fill="url(#paint9_linear)"/>
</g>
<g clip-path="url(#clip5)">
<path d="M76.5279 25.3677C76.5476 25.3677 76.5674 25.3671 76.5872 25.366C77.1407 25.3332 77.5628 24.8587 77.5304 24.3053C77.4811 23.471 77.4589 22.7111 77.4592 22.0197C77.455 18.9822 77.8977 17.2756 78.3327 16.3849V35.2011C78.3327 36.0579 79.0273 36.7519 79.8835 36.7519C80.74 36.7519 81.4346 36.0579 81.4346 35.2011V23.8777H82.016V35.2011C82.016 36.0579 82.7105 36.7519 83.5668 36.7519C84.4233 36.7519 85.1178 36.0579 85.1178 35.2011V16.3906C85.1922 16.5431 85.2671 16.7181 85.3411 16.9222C85.6946 17.9021 85.9923 19.5099 85.9911 22.0199C85.9911 22.7113 85.9688 23.4714 85.9201 24.3056C85.8878 24.8588 86.3101 25.3336 86.8636 25.3659C86.8834 25.367 86.9031 25.3676 86.9228 25.3676C87.4502 25.3676 87.8928 24.956 87.9238 24.4224C87.9743 23.5529 87.9979 22.7543 87.9979 22.0199C87.993 18.2337 87.3881 16.1383 86.5636 14.8783C86.1516 14.253 85.6696 13.8517 85.2241 13.6297C84.7952 13.4134 84.4183 13.3646 84.1922 13.3619C84.1775 13.3612 84.1631 13.3597 84.1482 13.3597H79.3021C79.2862 13.3597 79.2706 13.3614 79.2549 13.3621C79.0285 13.365 78.6531 13.4142 78.2258 13.6297C77.5511 13.9642 76.8237 14.6962 76.3148 15.993C75.7996 17.2949 75.4539 19.1772 75.4521 22.0197C75.4521 22.7541 75.4757 23.553 75.5268 24.4227C75.558 24.956 76.0004 25.3676 76.5279 25.3677Z" fill="#C9E3FE"/>
<path d="M76.5279 25.3677C76.5476 25.3677 76.5674 25.3671 76.5872 25.366C77.1407 25.3332 77.5628 24.8587 77.5304 24.3053C77.4811 23.471 77.4589 22.7111 77.4592 22.0197C77.455 18.9822 77.8977 17.2756 78.3327 16.3849V35.2011C78.3327 36.0579 79.0273 36.7519 79.8835 36.7519C80.74 36.7519 81.4346 36.0579 81.4346 35.2011V23.8777H82.016V35.2011C82.016 36.0579 82.7105 36.7519 83.5668 36.7519C84.4233 36.7519 85.1178 36.0579 85.1178 35.2011V16.3906C85.1922 16.5431 85.2671 16.7181 85.3411 16.9222C85.6946 17.9021 85.9923 19.5099 85.9911 22.0199C85.9911 22.7113 85.9688 23.4714 85.9201 24.3056C85.8878 24.8588 86.3101 25.3336 86.8636 25.3659C86.8834 25.367 86.9031 25.3676 86.9228 25.3676C87.4502 25.3676 87.8928 24.956 87.9238 24.4224C87.9743 23.5529 87.9979 22.7543 87.9979 22.0199C87.993 18.2337 87.3881 16.1383 86.5636 14.8783C86.1516 14.253 85.6696 13.8517 85.2241 13.6297C84.7952 13.4134 84.4183 13.3646 84.1922 13.3619C84.1775 13.3612 84.1631 13.3597 84.1482 13.3597H79.3021C79.2862 13.3597 79.2706 13.3614 79.2549 13.3621C79.0285 13.365 78.6531 13.4142 78.2258 13.6297C77.5511 13.9642 76.8237 14.6962 76.3148 15.993C75.7996 17.2949 75.4539 19.1772 75.4521 22.0197C75.4521 22.7541 75.4757 23.553 75.5268 24.4227C75.558 24.956 76.0004 25.3676 76.5279 25.3677Z" fill="#C9E3FE"/>
<path d="M76.5279 25.3677C76.5476 25.3677 76.5674 25.3671 76.5872 25.366C77.1407 25.3332 77.5628 24.8587 77.5304 24.3053C77.4811 23.471 77.4589 22.7111 77.4592 22.0197C77.455 18.9822 77.8977 17.2756 78.3327 16.3849V35.2011C78.3327 36.0579 79.0273 36.7519 79.8835 36.7519C80.74 36.7519 81.4346 36.0579 81.4346 35.2011V23.8777H82.016V35.2011C82.016 36.0579 82.7105 36.7519 83.5668 36.7519C84.4233 36.7519 85.1178 36.0579 85.1178 35.2011V16.3906C85.1922 16.5431 85.2671 16.7181 85.3411 16.9222C85.6946 17.9021 85.9923 19.5099 85.9911 22.0199C85.9911 22.7113 85.9688 23.4714 85.9201 24.3056C85.8878 24.8588 86.3101 25.3336 86.8636 25.3659C86.8834 25.367 86.9031 25.3676 86.9228 25.3676C87.4502 25.3676 87.8928 24.956 87.9238 24.4224C87.9743 23.5529 87.9979 22.7543 87.9979 22.0199C87.993 18.2337 87.3881 16.1383 86.5636 14.8783C86.1516 14.253 85.6696 13.8517 85.2241 13.6297C84.7952 13.4134 84.4183 13.3646 84.1922 13.3619C84.1775 13.3612 84.1631 13.3597 84.1482 13.3597H79.3021C79.2862 13.3597 79.2706 13.3614 79.2549 13.3621C79.0285 13.365 78.6531 13.4142 78.2258 13.6297C77.5511 13.9642 76.8237 14.6962 76.3148 15.993C75.7996 17.2949 75.4539 19.1772 75.4521 22.0197C75.4521 22.7541 75.4757 23.553 75.5268 24.4227C75.558 24.956 76.0004 25.3676 76.5279 25.3677Z" fill="url(#paint10_linear)"/>
<path d="M81.7247 12.6449C83.2835 12.6449 84.5471 11.3812 84.5471 9.82249C84.5471 8.26374 83.2835 7.00012 81.7247 7.00012C80.166 7.00012 78.9023 8.26374 78.9023 9.82249C78.9023 11.3812 80.166 12.6449 81.7247 12.6449Z" fill="#C9E3FE"/>
<path d="M81.7247 12.6449C83.2835 12.6449 84.5471 11.3812 84.5471 9.82249C84.5471 8.26374 83.2835 7.00012 81.7247 7.00012C80.166 7.00012 78.9023 8.26374 78.9023 9.82249C78.9023 11.3812 80.166 12.6449 81.7247 12.6449Z" fill="#C9E3FE"/>
<path d="M81.7247 12.6449C83.2835 12.6449 84.5471 11.3812 84.5471 9.82249C84.5471 8.26374 83.2835 7.00012 81.7247 7.00012C80.166 7.00012 78.9023 8.26374 78.9023 9.82249C78.9023 11.3812 80.166 12.6449 81.7247 12.6449Z" fill="url(#paint11_linear)"/>
</g>
<g clip-path="url(#clip6)">
<path d="M17.4801 33.3677C17.4998 33.3677 17.5196 33.3671 17.5394 33.366C18.0928 33.3332 18.5149 32.8587 18.4826 32.3053C18.4333 31.471 18.4111 30.7111 18.4113 30.0197C18.4072 26.9822 18.8498 25.2756 19.2849 24.3849V43.2011C19.2849 44.0579 19.9794 44.7519 20.8357 44.7519C21.6922 44.7519 22.3867 44.0579 22.3867 43.2011V31.8777H22.9681V43.2011C22.9681 44.0579 23.6627 44.7519 24.5189 44.7519C25.3754 44.7519 26.07 44.0579 26.07 43.2011V24.3906C26.1444 24.5431 26.2192 24.7181 26.2933 24.9222C26.6467 25.9021 26.9444 27.5099 26.9433 30.0199C26.9433 30.7113 26.9209 31.4714 26.8723 32.3056C26.8399 32.8588 27.2623 33.3336 27.8157 33.3659C27.8355 33.367 27.8552 33.3676 27.8749 33.3676C28.4024 33.3676 28.8449 32.956 28.8759 32.4224C28.9265 31.5529 28.95 30.7543 28.95 30.0199C28.9452 26.2337 28.3403 24.1383 27.5158 22.8783C27.1037 22.253 26.6218 21.8517 26.1762 21.6297C25.7473 21.4134 25.3704 21.3646 25.1444 21.3619C25.1297 21.3612 25.1153 21.3597 25.1003 21.3597H20.2543C20.2383 21.3597 20.2228 21.3614 20.2071 21.3621C19.9807 21.365 19.6052 21.4142 19.178 21.6297C18.5033 21.9642 17.7758 22.6962 17.2669 23.993C16.7518 25.2949 16.4061 27.1772 16.4043 30.0197C16.4043 30.7541 16.4279 31.553 16.4789 32.4227C16.5102 32.956 16.9526 33.3676 17.4801 33.3677Z" fill="url(#paint12_linear)"/>
<path d="M22.6769 20.6449C24.2356 20.6449 25.4992 19.3812 25.4992 17.8225C25.4992 16.2637 24.2356 15.0001 22.6769 15.0001C21.1181 15.0001 19.8545 16.2637 19.8545 17.8225C19.8545 19.3812 21.1181 20.6449 22.6769 20.6449Z" fill="url(#paint13_linear)"/>
</g>
<g clip-path="url(#clip7)">
<path d="M43.1597 33.3677C43.1794 33.3677 43.1993 33.3671 43.2191 33.366C43.7725 33.3332 44.1946 32.8587 44.1623 32.3053C44.113 31.471 44.0908 30.7111 44.091 30.0197C44.0869 26.9822 44.5295 25.2756 44.9646 24.3849V43.2011C44.9646 44.0579 45.6591 44.7519 46.5154 44.7519C47.3719 44.7519 48.0664 44.0579 48.0664 43.2011V31.8777H48.6478V43.2011C48.6478 44.0579 49.3424 44.7519 50.1986 44.7519C51.0551 44.7519 51.7497 44.0579 51.7497 43.2011V24.3906C51.824 24.5431 51.8989 24.7181 51.9729 24.9222C52.3264 25.9021 52.6241 27.5099 52.623 30.0199C52.623 30.7113 52.6006 31.4714 52.552 32.3056C52.5196 32.8588 52.942 33.3336 53.4954 33.3659C53.5152 33.367 53.5349 33.3676 53.5546 33.3676C54.0821 33.3676 54.5246 32.956 54.5556 32.4224C54.6061 31.5529 54.6297 30.7543 54.6297 30.0199C54.6248 26.2337 54.02 24.1383 53.1955 22.8783C52.7834 22.253 52.3015 21.8517 51.8559 21.6297C51.427 21.4134 51.0501 21.3646 50.824 21.3619C50.8094 21.3612 50.7949 21.3597 50.78 21.3597H45.9339C45.918 21.3597 45.9025 21.3614 45.8868 21.3621C45.6604 21.365 45.2849 21.4142 44.8577 21.6297C44.1829 21.9642 43.4555 22.6962 42.9466 23.993C42.4314 25.2949 42.0857 27.1772 42.084 30.0197C42.084 30.7541 42.1076 31.553 42.1586 32.4227C42.1899 32.956 42.6323 33.3676 43.1597 33.3677Z" fill="#AAD0F6"/>
<path d="M43.1597 33.3677C43.1794 33.3677 43.1993 33.3671 43.2191 33.366C43.7725 33.3332 44.1946 32.8587 44.1623 32.3053C44.113 31.471 44.0908 30.7111 44.091 30.0197C44.0869 26.9822 44.5295 25.2756 44.9646 24.3849V43.2011C44.9646 44.0579 45.6591 44.7519 46.5154 44.7519C47.3719 44.7519 48.0664 44.0579 48.0664 43.2011V31.8777H48.6478V43.2011C48.6478 44.0579 49.3424 44.7519 50.1986 44.7519C51.0551 44.7519 51.7497 44.0579 51.7497 43.2011V24.3906C51.824 24.5431 51.8989 24.7181 51.9729 24.9222C52.3264 25.9021 52.6241 27.5099 52.623 30.0199C52.623 30.7113 52.6006 31.4714 52.552 32.3056C52.5196 32.8588 52.942 33.3336 53.4954 33.3659C53.5152 33.367 53.5349 33.3676 53.5546 33.3676C54.0821 33.3676 54.5246 32.956 54.5556 32.4224C54.6061 31.5529 54.6297 30.7543 54.6297 30.0199C54.6248 26.2337 54.02 24.1383 53.1955 22.8783C52.7834 22.253 52.3015 21.8517 51.8559 21.6297C51.427 21.4134 51.0501 21.3646 50.824 21.3619C50.8094 21.3612 50.7949 21.3597 50.78 21.3597H45.9339C45.918 21.3597 45.9025 21.3614 45.8868 21.3621C45.6604 21.365 45.2849 21.4142 44.8577 21.6297C44.1829 21.9642 43.4555 22.6962 42.9466 23.993C42.4314 25.2949 42.0857 27.1772 42.084 30.0197C42.084 30.7541 42.1076 31.553 42.1586 32.4227C42.1899 32.956 42.6323 33.3676 43.1597 33.3677Z" fill="url(#paint14_linear)"/>
<path d="M48.3566 20.6449C49.9153 20.6449 51.1789 19.3812 51.1789 17.8225C51.1789 16.2637 49.9153 15.0001 48.3566 15.0001C46.7978 15.0001 45.5342 16.2637 45.5342 17.8225C45.5342 19.3812 46.7978 20.6449 48.3566 20.6449Z" fill="#AAD0F6"/>
<path d="M48.3566 20.6449C49.9153 20.6449 51.1789 19.3812 51.1789 17.8225C51.1789 16.2637 49.9153 15.0001 48.3566 15.0001C46.7978 15.0001 45.5342 16.2637 45.5342 17.8225C45.5342 19.3812 46.7978 20.6449 48.3566 20.6449Z" fill="url(#paint15_linear)"/>
</g>
<g clip-path="url(#clip8)">
<path d="M68.5279 33.3677C68.5476 33.3677 68.5674 33.3671 68.5872 33.366C69.1407 33.3332 69.5628 32.8587 69.5304 32.3053C69.4811 31.471 69.4589 30.7111 69.4592 30.0197C69.455 26.9822 69.8977 25.2756 70.3327 24.3849V43.2011C70.3327 44.0579 71.0273 44.7519 71.8835 44.7519C72.74 44.7519 73.4346 44.0579 73.4346 43.2011V31.8777H74.016V43.2011C74.016 44.0579 74.7105 44.7519 75.5668 44.7519C76.4233 44.7519 77.1178 44.0579 77.1178 43.2011V24.3906C77.1922 24.5431 77.2671 24.7181 77.3411 24.9222C77.6946 25.9021 77.9923 27.5099 77.9911 30.0199C77.9911 30.7113 77.9688 31.4714 77.9201 32.3056C77.8878 32.8588 78.3101 33.3336 78.8636 33.3659C78.8834 33.367 78.9031 33.3676 78.9228 33.3676C79.4502 33.3676 79.8928 32.956 79.9238 32.4224C79.9743 31.5529 79.9979 30.7543 79.9979 30.0199C79.993 26.2337 79.3881 24.1383 78.5636 22.8783C78.1516 22.253 77.6696 21.8517 77.2241 21.6297C76.7952 21.4134 76.4183 21.3646 76.1922 21.3619C76.1775 21.3612 76.1631 21.3597 76.1482 21.3597H71.3021C71.2862 21.3597 71.2706 21.3614 71.2549 21.3621C71.0285 21.365 70.6531 21.4142 70.2258 21.6297C69.5511 21.9642 68.8237 22.6962 68.3148 23.993C67.7996 25.2949 67.4539 27.1772 67.4521 30.0197C67.4521 30.7541 67.4757 31.553 67.5268 32.4227C67.558 32.956 68.0004 33.3676 68.5279 33.3677Z" fill="#AAD0F6"/>
<path d="M68.5279 33.3677C68.5476 33.3677 68.5674 33.3671 68.5872 33.366C69.1407 33.3332 69.5628 32.8587 69.5304 32.3053C69.4811 31.471 69.4589 30.7111 69.4592 30.0197C69.455 26.9822 69.8977 25.2756 70.3327 24.3849V43.2011C70.3327 44.0579 71.0273 44.7519 71.8835 44.7519C72.74 44.7519 73.4346 44.0579 73.4346 43.2011V31.8777H74.016V43.2011C74.016 44.0579 74.7105 44.7519 75.5668 44.7519C76.4233 44.7519 77.1178 44.0579 77.1178 43.2011V24.3906C77.1922 24.5431 77.2671 24.7181 77.3411 24.9222C77.6946 25.9021 77.9923 27.5099 77.9911 30.0199C77.9911 30.7113 77.9688 31.4714 77.9201 32.3056C77.8878 32.8588 78.3101 33.3336 78.8636 33.3659C78.8834 33.367 78.9031 33.3676 78.9228 33.3676C79.4502 33.3676 79.8928 32.956 79.9238 32.4224C79.9743 31.5529 79.9979 30.7543 79.9979 30.0199C79.993 26.2337 79.3881 24.1383 78.5636 22.8783C78.1516 22.253 77.6696 21.8517 77.2241 21.6297C76.7952 21.4134 76.4183 21.3646 76.1922 21.3619C76.1775 21.3612 76.1631 21.3597 76.1482 21.3597H71.3021C71.2862 21.3597 71.2706 21.3614 71.2549 21.3621C71.0285 21.365 70.6531 21.4142 70.2258 21.6297C69.5511 21.9642 68.8237 22.6962 68.3148 23.993C67.7996 25.2949 67.4539 27.1772 67.4521 30.0197C67.4521 30.7541 67.4757 31.553 67.5268 32.4227C67.558 32.956 68.0004 33.3676 68.5279 33.3677Z" fill="url(#paint16_linear)"/>
<path d="M73.7247 20.6449C75.2835 20.6449 76.5471 19.3812 76.5471 17.8225C76.5471 16.2637 75.2835 15.0001 73.7247 15.0001C72.166 15.0001 70.9023 16.2637 70.9023 17.8225C70.9023 19.3812 72.166 20.6449 73.7247 20.6449Z" fill="#AAD0F6"/>
<path d="M73.7247 20.6449C75.2835 20.6449 76.5471 19.3812 76.5471 17.8225C76.5471 16.2637 75.2835 15.0001 73.7247 15.0001C72.166 15.0001 70.9023 16.2637 70.9023 17.8225C70.9023 19.3812 72.166 20.6449 73.7247 20.6449Z" fill="url(#paint17_linear)"/>
</g>
<g clip-path="url(#clip9)">
<path d="M10.2789 40.5677C10.2986 40.5677 10.3184 40.5671 10.3382 40.5659C10.8917 40.5332 11.3138 40.0587 11.2814 39.5052C11.2321 38.6709 11.2099 37.911 11.2101 37.2196C11.206 34.1821 11.6487 32.4755 12.0837 31.5849V50.4011C12.0837 51.2578 12.7783 51.9519 13.6345 51.9519C14.491 51.9519 15.1855 51.2578 15.1855 50.4011V39.0776H15.767V50.4011C15.767 51.2578 16.4615 51.9519 17.3178 51.9519C18.1742 51.9519 18.8688 51.2578 18.8688 50.4011V31.5905C18.9432 31.7431 19.0181 31.9181 19.0921 32.1222C19.4456 33.1021 19.7432 34.7098 19.7421 37.2199C19.7421 37.9113 19.7198 38.6713 19.6711 39.5056C19.6387 40.0588 20.0611 40.5336 20.6145 40.5658C20.6343 40.5669 20.654 40.5676 20.6737 40.5676C21.2012 40.5676 21.6438 40.156 21.6747 39.6224C21.7253 38.7528 21.7489 37.9543 21.7489 37.2199C21.744 33.4336 21.1391 31.3383 20.3146 30.0783C19.9025 29.4529 19.4206 29.0517 18.975 28.8296C18.5462 28.6134 18.1692 28.5646 17.9432 28.5618C17.9285 28.5612 17.9141 28.5597 17.8992 28.5597H13.0531C13.0372 28.5597 13.0216 28.5613 13.0059 28.5621C12.7795 28.565 12.4041 28.6141 11.9768 28.8296C11.3021 29.1642 10.5747 29.8961 10.0658 31.1929C9.55059 32.4948 9.20488 34.3772 9.20312 37.2196C9.20312 37.954 9.22671 38.753 9.27776 39.6226C9.309 40.156 9.75142 40.5676 10.2789 40.5677Z" fill="#6EB2F7"/>
<path d="M10.2789 40.5677C10.2986 40.5677 10.3184 40.5671 10.3382 40.5659C10.8917 40.5332 11.3138 40.0587 11.2814 39.5052C11.2321 38.6709 11.2099 37.911 11.2101 37.2196C11.206 34.1821 11.6487 32.4755 12.0837 31.5849V50.4011C12.0837 51.2578 12.7783 51.9519 13.6345 51.9519C14.491 51.9519 15.1855 51.2578 15.1855 50.4011V39.0776H15.767V50.4011C15.767 51.2578 16.4615 51.9519 17.3178 51.9519C18.1742 51.9519 18.8688 51.2578 18.8688 50.4011V31.5905C18.9432 31.7431 19.0181 31.9181 19.0921 32.1222C19.4456 33.1021 19.7432 34.7098 19.7421 37.2199C19.7421 37.9113 19.7198 38.6713 19.6711 39.5056C19.6387 40.0588 20.0611 40.5336 20.6145 40.5658C20.6343 40.5669 20.654 40.5676 20.6737 40.5676C21.2012 40.5676 21.6438 40.156 21.6747 39.6224C21.7253 38.7528 21.7489 37.9543 21.7489 37.2199C21.744 33.4336 21.1391 31.3383 20.3146 30.0783C19.9025 29.4529 19.4206 29.0517 18.975 28.8296C18.5462 28.6134 18.1692 28.5646 17.9432 28.5618C17.9285 28.5612 17.9141 28.5597 17.8992 28.5597H13.0531C13.0372 28.5597 13.0216 28.5613 13.0059 28.5621C12.7795 28.565 12.4041 28.6141 11.9768 28.8296C11.3021 29.1642 10.5747 29.8961 10.0658 31.1929C9.55059 32.4948 9.20488 34.3772 9.20312 37.2196C9.20312 37.954 9.22671 38.753 9.27776 39.6226C9.309 40.156 9.75142 40.5676 10.2789 40.5677Z" fill="url(#paint18_linear)"/>
<path d="M15.4757 27.8448C17.0344 27.8448 18.2981 26.5812 18.2981 25.0224C18.2981 23.4637 17.0344 22.2001 15.4757 22.2001C13.9169 22.2001 12.6533 23.4637 12.6533 25.0224C12.6533 26.5812 13.9169 27.8448 15.4757 27.8448Z" fill="#6EB2F7"/>
<path d="M15.4757 27.8448C17.0344 27.8448 18.2981 26.5812 18.2981 25.0224C18.2981 23.4637 17.0344 22.2001 15.4757 22.2001C13.9169 22.2001 12.6533 23.4637 12.6533 25.0224C12.6533 26.5812 13.9169 27.8448 15.4757 27.8448Z" fill="url(#paint19_linear)"/>
</g>
<g clip-path="url(#clip10)">
<path d="M35.9596 40.5677C35.9792 40.5677 35.9991 40.5671 36.0189 40.5659C36.5723 40.5332 36.9944 40.0587 36.9621 39.5052C36.9128 38.6709 36.8906 37.911 36.8908 37.2196C36.8867 34.1821 37.3293 32.4755 37.7644 31.5849V50.4011C37.7644 51.2578 38.4589 51.9519 39.3152 51.9519C40.1717 51.9519 40.8662 51.2578 40.8662 50.4011V39.0776H41.4476V50.4011C41.4476 51.2578 42.1422 51.9519 42.9984 51.9519C43.8549 51.9519 44.5495 51.2578 44.5495 50.4011V31.5905C44.6238 31.7431 44.6987 31.9181 44.7727 32.1222C45.1262 33.1021 45.4239 34.7098 45.4228 37.2199C45.4228 37.9113 45.4004 38.6713 45.3518 39.5056C45.3194 40.0588 45.7418 40.5336 46.2952 40.5658C46.315 40.5669 46.3347 40.5676 46.3544 40.5676C46.8819 40.5676 47.3244 40.156 47.3554 39.6224C47.406 38.7528 47.4295 37.9543 47.4295 37.2199C47.4246 33.4336 46.8198 31.3383 45.9953 30.0783C45.5832 29.4529 45.1013 29.0517 44.6557 28.8296C44.2268 28.6134 43.8499 28.5646 43.6239 28.5618C43.6092 28.5612 43.5948 28.5597 43.5798 28.5597H38.7338C38.7178 28.5597 38.7023 28.5613 38.6866 28.5621C38.4602 28.565 38.0847 28.6141 37.6575 28.8296C36.9828 29.1642 36.2553 29.8961 35.7464 31.1929C35.2313 32.4948 34.8855 34.3772 34.8838 37.2196C34.8838 37.954 34.9074 38.753 34.9584 39.6226C34.9897 40.156 35.4321 40.5676 35.9596 40.5677Z" fill="#6EB2F7"/>
<path d="M35.9596 40.5677C35.9792 40.5677 35.9991 40.5671 36.0189 40.5659C36.5723 40.5332 36.9944 40.0587 36.9621 39.5052C36.9128 38.6709 36.8906 37.911 36.8908 37.2196C36.8867 34.1821 37.3293 32.4755 37.7644 31.5849V50.4011C37.7644 51.2578 38.4589 51.9519 39.3152 51.9519C40.1717 51.9519 40.8662 51.2578 40.8662 50.4011V39.0776H41.4476V50.4011C41.4476 51.2578 42.1422 51.9519 42.9984 51.9519C43.8549 51.9519 44.5495 51.2578 44.5495 50.4011V31.5905C44.6238 31.7431 44.6987 31.9181 44.7727 32.1222C45.1262 33.1021 45.4239 34.7098 45.4228 37.2199C45.4228 37.9113 45.4004 38.6713 45.3518 39.5056C45.3194 40.0588 45.7418 40.5336 46.2952 40.5658C46.315 40.5669 46.3347 40.5676 46.3544 40.5676C46.8819 40.5676 47.3244 40.156 47.3554 39.6224C47.406 38.7528 47.4295 37.9543 47.4295 37.2199C47.4246 33.4336 46.8198 31.3383 45.9953 30.0783C45.5832 29.4529 45.1013 29.0517 44.6557 28.8296C44.2268 28.6134 43.8499 28.5646 43.6239 28.5618C43.6092 28.5612 43.5948 28.5597 43.5798 28.5597H38.7338C38.7178 28.5597 38.7023 28.5613 38.6866 28.5621C38.4602 28.565 38.0847 28.6141 37.6575 28.8296C36.9828 29.1642 36.2553 29.8961 35.7464 31.1929C35.2313 32.4948 34.8855 34.3772 34.8838 37.2196C34.8838 37.954 34.9074 38.753 34.9584 39.6226C34.9897 40.156 35.4321 40.5676 35.9596 40.5677Z" fill="url(#paint20_linear)"/>
<path d="M41.1564 27.8448C42.7151 27.8448 43.9787 26.5812 43.9787 25.0224C43.9787 23.4637 42.7151 22.2001 41.1564 22.2001C39.5976 22.2001 38.334 23.4637 38.334 25.0224C38.334 26.5812 39.5976 27.8448 41.1564 27.8448Z" fill="#6EB2F7"/>
<path d="M41.1564 27.8448C42.7151 27.8448 43.9787 26.5812 43.9787 25.0224C43.9787 23.4637 42.7151 22.2001 41.1564 22.2001C39.5976 22.2001 38.334 23.4637 38.334 25.0224C38.334 26.5812 39.5976 27.8448 41.1564 27.8448Z" fill="url(#paint21_linear)"/>
</g>
<g clip-path="url(#clip11)">
<path d="M61.3267 40.5677C61.3464 40.5677 61.3663 40.5671 61.3861 40.5659C61.9395 40.5332 62.3616 40.0587 62.3292 39.5052C62.2799 38.6709 62.2577 37.911 62.258 37.2196C62.2539 34.1821 62.6965 32.4755 63.1316 31.5849V50.4011C63.1316 51.2578 63.8261 51.9519 64.6823 51.9519C65.5388 51.9519 66.2334 51.2578 66.2334 50.4011V39.0776H66.8148V50.4011C66.8148 51.2578 67.5094 51.9519 68.3656 51.9519C69.2221 51.9519 69.9167 51.2578 69.9167 50.4011V31.5905C69.991 31.7431 70.0659 31.9181 70.1399 32.1222C70.4934 33.1021 70.7911 34.7098 70.79 37.2199C70.79 37.9113 70.7676 38.6713 70.719 39.5056C70.6866 40.0588 71.1089 40.5336 71.6624 40.5658C71.6822 40.5669 71.7019 40.5676 71.7216 40.5676C72.2491 40.5676 72.6916 40.156 72.7226 39.6224C72.7731 38.7528 72.7967 37.9543 72.7967 37.2199C72.7918 33.4336 72.187 31.3383 71.3625 30.0783C70.9504 29.4529 70.4685 29.0517 70.0229 28.8296C69.594 28.6134 69.2171 28.5646 68.991 28.5618C68.9764 28.5612 68.9619 28.5597 68.947 28.5597H64.1009C64.085 28.5597 64.0695 28.5613 64.0538 28.5621C63.8274 28.565 63.4519 28.6141 63.0247 28.8296C62.3499 29.1642 61.6225 29.8961 61.1136 31.1929C60.5984 32.4948 60.2527 34.3772 60.251 37.2196C60.251 37.954 60.2746 38.753 60.3256 39.6226C60.3568 40.156 60.7993 40.5676 61.3267 40.5677Z" fill="#6EB2F7"/>
<path d="M61.3267 40.5677C61.3464 40.5677 61.3663 40.5671 61.3861 40.5659C61.9395 40.5332 62.3616 40.0587 62.3292 39.5052C62.2799 38.6709 62.2577 37.911 62.258 37.2196C62.2539 34.1821 62.6965 32.4755 63.1316 31.5849V50.4011C63.1316 51.2578 63.8261 51.9519 64.6823 51.9519C65.5388 51.9519 66.2334 51.2578 66.2334 50.4011V39.0776H66.8148V50.4011C66.8148 51.2578 67.5094 51.9519 68.3656 51.9519C69.2221 51.9519 69.9167 51.2578 69.9167 50.4011V31.5905C69.991 31.7431 70.0659 31.9181 70.1399 32.1222C70.4934 33.1021 70.7911 34.7098 70.79 37.2199C70.79 37.9113 70.7676 38.6713 70.719 39.5056C70.6866 40.0588 71.1089 40.5336 71.6624 40.5658C71.6822 40.5669 71.7019 40.5676 71.7216 40.5676C72.2491 40.5676 72.6916 40.156 72.7226 39.6224C72.7731 38.7528 72.7967 37.9543 72.7967 37.2199C72.7918 33.4336 72.187 31.3383 71.3625 30.0783C70.9504 29.4529 70.4685 29.0517 70.0229 28.8296C69.594 28.6134 69.2171 28.5646 68.991 28.5618C68.9764 28.5612 68.9619 28.5597 68.947 28.5597H64.1009C64.085 28.5597 64.0695 28.5613 64.0538 28.5621C63.8274 28.565 63.4519 28.6141 63.0247 28.8296C62.3499 29.1642 61.6225 29.8961 61.1136 31.1929C60.5984 32.4948 60.2527 34.3772 60.251 37.2196C60.251 37.954 60.2746 38.753 60.3256 39.6226C60.3568 40.156 60.7993 40.5676 61.3267 40.5677Z" fill="url(#paint22_linear)"/>
<path d="M66.5235 27.8448C68.0823 27.8448 69.3459 26.5812 69.3459 25.0224C69.3459 23.4637 68.0823 22.2001 66.5235 22.2001C64.9648 22.2001 63.7012 23.4637 63.7012 25.0224C63.7012 26.5812 64.9648 27.8448 66.5235 27.8448Z" fill="#6EB2F7"/>
<path d="M66.5235 27.8448C68.0823 27.8448 69.3459 26.5812 69.3459 25.0224C69.3459 23.4637 68.0823 22.2001 66.5235 22.2001C64.9648 22.2001 63.7012 23.4637 63.7012 25.0224C63.7012 26.5812 64.9648 27.8448 66.5235 27.8448Z" fill="url(#paint23_linear)"/>
</g>
<defs>
<linearGradient id="paint0_linear" x1="37.8764" y1="6.95972" x2="37.8764" y2="30.3519" gradientUnits="userSpaceOnUse">
<stop stop-color="#E8F3FF"/>
<stop offset="1" stop-color="#D2E6F9"/>
</linearGradient>
<linearGradient id="paint1_linear" x1="37.8761" y1="0.600098" x2="37.8761" y2="6.24484" gradientUnits="userSpaceOnUse">
<stop stop-color="#E8F3FF"/>
<stop offset="1" stop-color="#D2E6F9"/>
</linearGradient>
<linearGradient id="paint2_linear" x1="63.5561" y1="6.95972" x2="63.5561" y2="30.3519" gradientUnits="userSpaceOnUse">
<stop stop-color="#E8F3FF"/>
<stop offset="1" stop-color="#D2E6F9"/>
</linearGradient>
<linearGradient id="paint3_linear" x1="63.5558" y1="0.600098" x2="63.5558" y2="6.24484" gradientUnits="userSpaceOnUse">
<stop stop-color="#E8F3FF"/>
<stop offset="1" stop-color="#D2E6F9"/>
</linearGradient>
<linearGradient id="paint4_linear" x1="88.9252" y1="6.95972" x2="88.9252" y2="30.3519" gradientUnits="userSpaceOnUse">
<stop stop-color="#E8F3FF"/>
<stop offset="1" stop-color="#D2E6F9"/>
</linearGradient>
<linearGradient id="paint5_linear" x1="88.9249" y1="0.600098" x2="88.9249" y2="6.24484" gradientUnits="userSpaceOnUse">
<stop stop-color="#E8F3FF"/>
<stop offset="1" stop-color="#D2E6F9"/>
</linearGradient>
<linearGradient id="paint6_linear" x1="30.6772" y1="13.3597" x2="30.6772" y2="36.7519" gradientUnits="userSpaceOnUse">
<stop stop-color="#C9E3FE"/>
<stop offset="1" stop-color="#B6D5F4"/>
</linearGradient>
<linearGradient id="paint7_linear" x1="30.6769" y1="7.00012" x2="30.6769" y2="12.6449" gradientUnits="userSpaceOnUse">
<stop stop-color="#C9E3FE"/>
<stop offset="1" stop-color="#B6D5F4"/>
</linearGradient>
<linearGradient id="paint8_linear" x1="56.3569" y1="13.3597" x2="56.3569" y2="36.7519" gradientUnits="userSpaceOnUse">
<stop stop-color="#C9E3FE"/>
<stop offset="1" stop-color="#B6D5F4"/>
</linearGradient>
<linearGradient id="paint9_linear" x1="56.3566" y1="7.00012" x2="56.3566" y2="12.6449" gradientUnits="userSpaceOnUse">
<stop stop-color="#C9E3FE"/>
<stop offset="1" stop-color="#B6D5F4"/>
</linearGradient>
<linearGradient id="paint10_linear" x1="81.725" y1="13.3597" x2="81.725" y2="36.7519" gradientUnits="userSpaceOnUse">
<stop stop-color="#C9E3FE"/>
<stop offset="1" stop-color="#B6D5F4"/>
</linearGradient>
<linearGradient id="paint11_linear" x1="81.7247" y1="7.00012" x2="81.7247" y2="12.6449" gradientUnits="userSpaceOnUse">
<stop stop-color="#C9E3FE"/>
<stop offset="1" stop-color="#B6D5F4"/>
</linearGradient>
<linearGradient id="paint12_linear" x1="22.6772" y1="21.3597" x2="22.6772" y2="44.7519" gradientUnits="userSpaceOnUse">
<stop stop-color="#AAD0F6"/>
<stop offset="1" stop-color="#95BFE9"/>
</linearGradient>
<linearGradient id="paint13_linear" x1="22.6769" y1="15.0001" x2="22.6769" y2="20.6449" gradientUnits="userSpaceOnUse">
<stop stop-color="#AAD0F6"/>
<stop offset="1" stop-color="#95BFE9"/>
</linearGradient>
<linearGradient id="paint14_linear" x1="48.3569" y1="21.3597" x2="48.3569" y2="44.7519" gradientUnits="userSpaceOnUse">
<stop stop-color="#AAD0F6"/>
<stop offset="1" stop-color="#95BFE9"/>
</linearGradient>
<linearGradient id="paint15_linear" x1="48.3566" y1="15.0001" x2="48.3566" y2="20.6449" gradientUnits="userSpaceOnUse">
<stop stop-color="#AAD0F6"/>
<stop offset="1" stop-color="#95BFE9"/>
</linearGradient>
<linearGradient id="paint16_linear" x1="73.725" y1="21.3597" x2="73.725" y2="44.7519" gradientUnits="userSpaceOnUse">
<stop stop-color="#AAD0F6"/>
<stop offset="1" stop-color="#95BFE9"/>
</linearGradient>
<linearGradient id="paint17_linear" x1="73.7247" y1="15.0001" x2="73.7247" y2="20.6449" gradientUnits="userSpaceOnUse">
<stop stop-color="#AAD0F6"/>
<stop offset="1" stop-color="#95BFE9"/>
</linearGradient>
<linearGradient id="paint18_linear" x1="15.476" y1="28.5597" x2="15.476" y2="51.9519" gradientUnits="userSpaceOnUse">
<stop stop-color="#6EB2F7"/>
<stop offset="1" stop-color="#5C8DC0"/>
</linearGradient>
<linearGradient id="paint19_linear" x1="15.4757" y1="22.2001" x2="15.4757" y2="27.8448" gradientUnits="userSpaceOnUse">
<stop stop-color="#6EB2F7"/>
<stop offset="1" stop-color="#5C8DC0"/>
</linearGradient>
<linearGradient id="paint20_linear" x1="41.1567" y1="28.5597" x2="41.1567" y2="51.9519" gradientUnits="userSpaceOnUse">
<stop stop-color="#6EB2F7"/>
<stop offset="1" stop-color="#5C8DC0"/>
</linearGradient>
<linearGradient id="paint21_linear" x1="41.1564" y1="22.2001" x2="41.1564" y2="27.8448" gradientUnits="userSpaceOnUse">
<stop stop-color="#6EB2F7"/>
<stop offset="1" stop-color="#5C8DC0"/>
</linearGradient>
<linearGradient id="paint22_linear" x1="66.5238" y1="28.5597" x2="66.5238" y2="51.9519" gradientUnits="userSpaceOnUse">
<stop stop-color="#6EB2F7"/>
<stop offset="1" stop-color="#5C8DC0"/>
</linearGradient>
<linearGradient id="paint23_linear" x1="66.5235" y1="22.2001" x2="66.5235" y2="27.8448" gradientUnits="userSpaceOnUse">
<stop stop-color="#6EB2F7"/>
<stop offset="1" stop-color="#5C8DC0"/>
</linearGradient>
<clipPath id="clip0">
<rect width="29.7519" height="29.7519" fill="white" transform="translate(23 0.600098)"/>
</clipPath>
<clipPath id="clip1">
<rect width="29.7519" height="29.7519" fill="white" transform="translate(48.6797 0.600098)"/>
</clipPath>
<clipPath id="clip2">
<rect width="29.7519" height="29.7519" fill="white" transform="translate(74.0488 0.600098)"/>
</clipPath>
<clipPath id="clip3">
<rect width="29.7519" height="29.7519" fill="white" transform="translate(15.8008 7.00012)"/>
</clipPath>
<clipPath id="clip4">
<rect width="29.7519" height="29.7519" fill="white" transform="translate(41.4805 7.00012)"/>
</clipPath>
<clipPath id="clip5">
<rect width="29.7519" height="29.7519" fill="white" transform="translate(66.8486 7.00012)"/>
</clipPath>
<clipPath id="clip6">
<rect width="29.7519" height="29.7519" fill="white" transform="translate(7.80078 15.0001)"/>
</clipPath>
<clipPath id="clip7">
<rect width="29.7519" height="29.7519" fill="white" transform="translate(33.4805 15.0001)"/>
</clipPath>
<clipPath id="clip8">
<rect width="29.7519" height="29.7519" fill="white" transform="translate(58.8486 15.0001)"/>
</clipPath>
<clipPath id="clip9">
<rect width="29.7519" height="29.7519" fill="white" transform="translate(0.599609 22.2001)"/>
</clipPath>
<clipPath id="clip10">
<rect width="29.7519" height="29.7519" fill="white" transform="translate(26.2803 22.2001)"/>
</clipPath>
<clipPath id="clip11">
<rect width="29.7519" height="29.7519" fill="white" transform="translate(51.6475 22.2001)"/>
</clipPath>
</defs>
</svg>
