<svg width="82" height="30" viewBox="0 0 82 30" fill="none" xmlns="http://www.w3.org/2000/svg">
<g clip-path="url(#clip0)">
<path d="M10.4791 18.5678C10.4988 18.5678 10.5186 18.5672 10.5384 18.5661C11.0919 18.5333 11.514 18.0588 11.4816 17.5053C11.4323 16.6711 11.4101 15.9111 11.4103 15.2197C11.4062 12.1822 11.8489 10.4756 12.2839 9.58502V28.4012C12.2839 29.2579 12.9784 29.952 13.8347 29.952C14.6912 29.952 15.3857 29.2579 15.3857 28.4012V17.0777H15.9671V28.4012C15.9671 29.2579 16.6617 29.952 17.5179 29.952C18.3744 29.952 19.069 29.2579 19.069 28.4012V9.59066C19.1434 9.7432 19.2183 9.91818 19.2923 10.1223C19.6458 11.1022 19.9434 12.7099 19.9423 15.22C19.9423 15.9114 19.92 16.6714 19.8713 17.5057C19.8389 18.0589 20.2613 18.5337 20.8147 18.5659C20.8345 18.5671 20.8542 18.5677 20.8739 18.5677C21.4014 18.5677 21.844 18.1561 21.8749 17.6225C21.9255 16.753 21.9491 15.9544 21.9491 15.22C21.9442 11.4337 21.3393 9.33841 20.5148 8.07838C20.1027 7.45306 19.6208 7.05179 19.1752 6.82976C18.7464 6.6135 18.3694 6.56471 18.1434 6.56195C18.1287 6.56132 18.1143 6.55981 18.0994 6.55981H13.2533C13.2374 6.55981 13.2218 6.56144 13.2061 6.5622C12.9797 6.56508 12.6043 6.61425 12.177 6.82976C11.5023 7.1643 10.7749 7.89624 10.266 9.19302C9.75079 10.495 9.40508 12.3773 9.40332 15.2197C9.40332 15.9542 9.4269 16.7531 9.47796 17.6228C9.50919 18.1561 9.95161 18.5677 10.4791 18.5678Z" fill="url(#paint0_linear)"/>
<path d="M15.6759 5.84494C17.2346 5.84494 18.4983 4.58132 18.4983 3.02257C18.4983 1.46381 17.2346 0.200195 15.6759 0.200195C14.1171 0.200195 12.8535 1.46381 12.8535 3.02257C12.8535 4.58132 14.1171 5.84494 15.6759 5.84494Z" fill="url(#paint1_linear)"/>
</g>
<g clip-path="url(#clip1)">
<path d="M36.1588 18.5677C36.1785 18.5677 36.1983 18.5671 36.2181 18.5659C36.7715 18.5332 37.1936 18.0587 37.1613 17.5052C37.112 16.6709 37.0898 15.911 37.09 15.2196C37.0859 12.1821 37.5286 10.4755 37.9636 9.5849V28.4011C37.9636 29.2578 38.6581 29.9519 39.5144 29.9519C40.3709 29.9519 41.0654 29.2578 41.0654 28.4011V17.0776H41.6468V28.4011C41.6468 29.2578 42.3414 29.9519 43.1976 29.9519C44.0541 29.9519 44.7487 29.2578 44.7487 28.4011V9.59054C44.8231 9.74308 44.898 9.91806 44.972 10.1222C45.3255 11.1021 45.6231 12.7098 45.622 15.2199C45.622 15.9113 45.5997 16.6713 45.551 17.5056C45.5186 18.0588 45.941 18.5336 46.4944 18.5658C46.5142 18.5669 46.5339 18.5676 46.5536 18.5676C47.0811 18.5676 47.5236 18.156 47.5546 17.6224C47.6052 16.7528 47.6288 15.9543 47.6288 15.2199C47.6239 11.4336 47.019 9.33828 46.1945 8.07825C45.7824 7.45294 45.3005 7.05166 44.8549 6.82964C44.4261 6.61338 44.0491 6.56458 43.8231 6.56182C43.8084 6.5612 43.794 6.55969 43.779 6.55969H38.933C38.917 6.55969 38.9015 6.56132 38.8858 6.56208C38.6594 6.56496 38.284 6.61413 37.8567 6.82964C37.182 7.16418 36.4546 7.89612 35.9456 9.1929C35.4305 10.4948 35.0848 12.3772 35.083 15.2196C35.083 15.954 35.1066 16.753 35.1576 17.6226C35.1889 18.156 35.6313 18.5676 36.1588 18.5677Z" fill="url(#paint2_linear)"/>
<path d="M41.3556 5.84481C42.9143 5.84481 44.1779 4.5812 44.1779 3.02244C44.1779 1.46369 42.9143 0.200073 41.3556 0.200073C39.7968 0.200073 38.5332 1.46369 38.5332 3.02244C38.5332 4.5812 39.7968 5.84481 41.3556 5.84481Z" fill="url(#paint3_linear)"/>
</g>
<g clip-path="url(#clip2)">
<path d="M61.5269 18.5677C61.5466 18.5677 61.5664 18.5671 61.5863 18.5659C62.1397 18.5332 62.5618 18.0587 62.5294 17.5052C62.4801 16.6709 62.4579 15.911 62.4582 15.2196C62.4541 12.1821 62.8967 10.4755 63.3317 9.5849V28.4011C63.3317 29.2578 64.0263 29.9519 64.8825 29.9519C65.739 29.9519 66.4336 29.2578 66.4336 28.4011V17.0776H67.015V28.4011C67.015 29.2578 67.7096 29.9519 68.5658 29.9519C69.4223 29.9519 70.1168 29.2578 70.1168 28.4011V9.59054C70.1912 9.74308 70.2661 9.91806 70.3401 10.1222C70.6936 11.1021 70.9913 12.7098 70.9902 15.2199C70.9902 15.9113 70.9678 16.6713 70.9192 17.5056C70.8868 18.0588 71.3091 18.5336 71.8626 18.5658C71.8824 18.5669 71.9021 18.5676 71.9218 18.5676C72.4493 18.5676 72.8918 18.156 72.9228 17.6224C72.9733 16.7528 72.9969 15.9543 72.9969 15.2199C72.992 11.4336 72.3872 9.33828 71.5627 8.07825C71.1506 7.45294 70.6687 7.05166 70.2231 6.82964C69.7942 6.61338 69.4173 6.56458 69.1912 6.56182C69.1766 6.5612 69.1621 6.55969 69.1472 6.55969H64.3011C64.2852 6.55969 64.2697 6.56132 64.254 6.56208C64.0276 6.56496 63.6521 6.61413 63.2249 6.82964C62.5501 7.16418 61.8227 7.89612 61.3138 9.1929C60.7986 10.4948 60.4529 12.3772 60.4512 15.2196C60.4512 15.954 60.4748 16.753 60.5258 17.6226C60.557 18.156 60.9995 18.5676 61.5269 18.5677Z" fill="url(#paint4_linear)"/>
<path d="M66.7237 5.84481C68.2825 5.84481 69.5461 4.5812 69.5461 3.02244C69.5461 1.46369 68.2825 0.200073 66.7237 0.200073C65.165 0.200073 63.9014 1.46369 63.9014 3.02244C63.9014 4.5812 65.165 5.84481 66.7237 5.84481Z" fill="url(#paint5_linear)"/>
</g>
<defs>
<linearGradient id="paint0_linear" x1="15.6762" y1="6.55981" x2="15.6762" y2="29.952" gradientUnits="userSpaceOnUse">
<stop stop-color="#6EB2F7"/>
<stop offset="1" stop-color="#5C8DC0"/>
</linearGradient>
<linearGradient id="paint1_linear" x1="15.6759" y1="0.200195" x2="15.6759" y2="5.84494" gradientUnits="userSpaceOnUse">
<stop stop-color="#6EB2F7"/>
<stop offset="1" stop-color="#5C8DC0"/>
</linearGradient>
<linearGradient id="paint2_linear" x1="41.3559" y1="6.55969" x2="41.3559" y2="29.9519" gradientUnits="userSpaceOnUse">
<stop stop-color="#6EB2F7"/>
<stop offset="1" stop-color="#5C8DC0"/>
</linearGradient>
<linearGradient id="paint3_linear" x1="41.3556" y1="0.200073" x2="41.3556" y2="5.84481" gradientUnits="userSpaceOnUse">
<stop stop-color="#6EB2F7"/>
<stop offset="1" stop-color="#5C8DC0"/>
</linearGradient>
<linearGradient id="paint4_linear" x1="66.724" y1="6.55969" x2="66.724" y2="29.9519" gradientUnits="userSpaceOnUse">
<stop stop-color="#6EB2F7"/>
<stop offset="1" stop-color="#5C8DC0"/>
</linearGradient>
<linearGradient id="paint5_linear" x1="66.7237" y1="0.200073" x2="66.7237" y2="5.84481" gradientUnits="userSpaceOnUse">
<stop stop-color="#6EB2F7"/>
<stop offset="1" stop-color="#5C8DC0"/>
</linearGradient>
<clipPath id="clip0">
<rect width="29.7519" height="29.7519" fill="white" transform="translate(0.799805 0.200195)"/>
</clipPath>
<clipPath id="clip1">
<rect width="29.7519" height="29.7519" fill="white" transform="translate(26.4795 0.200073)"/>
</clipPath>
<clipPath id="clip2">
<rect width="29.7519" height="29.7519" fill="white" transform="translate(51.8477 0.200073)"/>
</clipPath>
</defs>
</svg>
