<svg width="268" height="76" viewBox="0 0 268 76" fill="none" xmlns="http://www.w3.org/2000/svg">
<path d="M24.7236 46.9193C24.7739 46.9193 24.8245 46.9177 24.8751 46.9148C26.2889 46.8311 27.3671 45.619 27.2844 44.2052C27.1585 42.0741 27.1018 40.1329 27.1024 38.3667C27.0919 30.6076 28.2226 26.2482 29.3339 23.9731V72.0382C29.3339 74.2268 31.1081 75.9997 33.2953 75.9997C35.4832 75.9997 37.2574 74.2268 37.2574 72.0382V43.1129H38.7426V72.0382C38.7426 74.2268 40.5168 75.9997 42.704 75.9997C44.8919 75.9997 46.6661 74.2268 46.6661 72.0382V23.9875C46.8561 24.3772 47.0474 24.8242 47.2365 25.3455C48.1395 27.8487 48.8998 31.9556 48.8969 38.3674C48.8969 40.1336 48.8399 42.075 48.7156 44.2062C48.6329 45.6193 49.7118 46.8321 51.1255 46.9145C51.1761 46.9173 51.2265 46.9189 51.2768 46.9189C52.6242 46.9189 53.7546 45.8676 53.8338 44.5045C53.9629 42.2833 54.0231 40.2435 54.0231 38.3674C54.0106 28.6956 52.4655 23.3432 50.3594 20.1245C49.3068 18.5271 48.0757 17.5021 46.9375 16.9349C45.842 16.3825 44.8791 16.2579 44.3017 16.2508C44.2642 16.2492 44.2274 16.2454 44.1892 16.2454H31.8101C31.7695 16.2454 31.7297 16.2495 31.6897 16.2514C31.1113 16.2588 30.1523 16.3844 29.0609 16.9349C27.3373 17.7895 25.4791 19.6592 24.1792 22.9718C22.8632 26.2975 21.9801 31.1058 21.9756 38.3667C21.9756 40.2428 22.0358 42.2836 22.1662 44.5052C22.246 45.8676 23.3762 46.9189 24.7236 46.9193Z" fill="#3884D1"/>
<path d="M24.7236 46.9193C24.7739 46.9193 24.8245 46.9177 24.8751 46.9148C26.2889 46.8311 27.3671 45.619 27.2844 44.2052C27.1585 42.0741 27.1018 40.1329 27.1024 38.3667C27.0919 30.6076 28.2226 26.2482 29.3339 23.9731V72.0382C29.3339 74.2268 31.1081 75.9997 33.2953 75.9997C35.4832 75.9997 37.2574 74.2268 37.2574 72.0382V43.1129H38.7426V72.0382C38.7426 74.2268 40.5168 75.9997 42.704 75.9997C44.8919 75.9997 46.6661 74.2268 46.6661 72.0382V23.9875C46.8561 24.3772 47.0474 24.8242 47.2365 25.3455C48.1395 27.8487 48.8998 31.9556 48.8969 38.3674C48.8969 40.1336 48.8399 42.075 48.7156 44.2062C48.6329 45.6193 49.7118 46.8321 51.1255 46.9145C51.1761 46.9173 51.2265 46.9189 51.2768 46.9189C52.6242 46.9189 53.7546 45.8676 53.8338 44.5045C53.9629 42.2833 54.0231 40.2435 54.0231 38.3674C54.0106 28.6956 52.4655 23.3432 50.3594 20.1245C49.3068 18.5271 48.0757 17.5021 46.9375 16.9349C45.842 16.3825 44.8791 16.2579 44.3017 16.2508C44.2642 16.2492 44.2274 16.2454 44.1892 16.2454H31.8101C31.7695 16.2454 31.7297 16.2495 31.6897 16.2514C31.1113 16.2588 30.1523 16.3844 29.0609 16.9349C27.3373 17.7895 25.4791 19.6592 24.1792 22.9718C22.8632 26.2975 21.9801 31.1058 21.9756 38.3667C21.9756 40.2428 22.0358 42.2836 22.1662 44.5052C22.246 45.8676 23.3762 46.9189 24.7236 46.9193Z" fill="url(#paint0_linear)"/>
<path d="M37.9997 14.4192C41.9814 14.4192 45.2093 11.1914 45.2093 7.20962C45.2093 3.22786 41.9814 0 37.9997 0C34.0179 0 30.79 3.22786 30.79 7.20962C30.79 11.1914 34.0179 14.4192 37.9997 14.4192Z" fill="#3884D1"/>
<path d="M37.9997 14.4192C41.9814 14.4192 45.2093 11.1914 45.2093 7.20962C45.2093 3.22786 41.9814 0 37.9997 0C34.0179 0 30.79 3.22786 30.79 7.20962C30.79 11.1914 34.0179 14.4192 37.9997 14.4192Z" fill="url(#paint1_linear)"/>
<path d="M120.724 46.9193C120.774 46.9193 120.825 46.9177 120.875 46.9148C122.289 46.8311 123.367 45.619 123.284 44.2052C123.159 42.0741 123.102 40.1329 123.102 38.3667C123.092 30.6076 124.223 26.2482 125.334 23.9731V72.0382C125.334 74.2268 127.108 75.9997 129.295 75.9997C131.483 75.9997 133.257 74.2268 133.257 72.0382V43.1129H134.743V72.0382C134.743 74.2268 136.517 75.9997 138.704 75.9997C140.892 75.9997 142.666 74.2268 142.666 72.0382V23.9875C142.856 24.3772 143.047 24.8242 143.236 25.3455C144.139 27.8487 144.9 31.9556 144.897 38.3674C144.897 40.1336 144.84 42.075 144.716 44.2062C144.633 45.6193 145.712 46.8321 147.126 46.9145C147.176 46.9173 147.226 46.9189 147.277 46.9189C148.624 46.9189 149.755 45.8676 149.834 44.5045C149.963 42.2833 150.023 40.2435 150.023 38.3674C150.011 28.6956 148.466 23.3432 146.359 20.1245C145.307 18.5271 144.076 17.5021 142.938 16.9349C141.842 16.3825 140.879 16.2579 140.302 16.2508C140.264 16.2492 140.227 16.2454 140.189 16.2454H127.81C127.769 16.2454 127.73 16.2495 127.69 16.2514C127.111 16.2588 126.152 16.3844 125.061 16.9349C123.337 17.7895 121.479 19.6592 120.179 22.9718C118.863 26.2975 117.98 31.1058 117.976 38.3667C117.976 40.2428 118.036 42.2836 118.166 44.5052C118.246 45.8676 119.376 46.9189 120.724 46.9193Z" fill="#3884D1"/>
<path d="M120.724 46.9193C120.774 46.9193 120.825 46.9177 120.875 46.9148C122.289 46.8311 123.367 45.619 123.284 44.2052C123.159 42.0741 123.102 40.1329 123.102 38.3667C123.092 30.6076 124.223 26.2482 125.334 23.9731V72.0382C125.334 74.2268 127.108 75.9997 129.295 75.9997C131.483 75.9997 133.257 74.2268 133.257 72.0382V43.1129H134.743V72.0382C134.743 74.2268 136.517 75.9997 138.704 75.9997C140.892 75.9997 142.666 74.2268 142.666 72.0382V23.9875C142.856 24.3772 143.047 24.8242 143.236 25.3455C144.139 27.8487 144.9 31.9556 144.897 38.3674C144.897 40.1336 144.84 42.075 144.716 44.2062C144.633 45.6193 145.712 46.8321 147.126 46.9145C147.176 46.9173 147.226 46.9189 147.277 46.9189C148.624 46.9189 149.755 45.8676 149.834 44.5045C149.963 42.2833 150.023 40.2435 150.023 38.3674C150.011 28.6956 148.466 23.3432 146.359 20.1245C145.307 18.5271 144.076 17.5021 142.938 16.9349C141.842 16.3825 140.879 16.2579 140.302 16.2508C140.264 16.2492 140.227 16.2454 140.189 16.2454H127.81C127.769 16.2454 127.73 16.2495 127.69 16.2514C127.111 16.2588 126.152 16.3844 125.061 16.9349C123.337 17.7895 121.479 19.6592 120.179 22.9718C118.863 26.2975 117.98 31.1058 117.976 38.3667C117.976 40.2428 118.036 42.2836 118.166 44.5052C118.246 45.8676 119.376 46.9189 120.724 46.9193Z" fill="url(#paint2_linear)"/>
<path d="M134 14.4192C137.981 14.4192 141.209 11.1914 141.209 7.20962C141.209 3.22786 137.981 0 134 0C130.018 0 126.79 3.22786 126.79 7.20962C126.79 11.1914 130.018 14.4192 134 14.4192Z" fill="#3884D1"/>
<path d="M134 14.4192C137.981 14.4192 141.209 11.1914 141.209 7.20962C141.209 3.22786 137.981 0 134 0C130.018 0 126.79 3.22786 126.79 7.20962C126.79 11.1914 130.018 14.4192 134 14.4192Z" fill="url(#paint3_linear)"/>
<path d="M216.724 46.9193C216.774 46.9193 216.825 46.9177 216.875 46.9148C218.289 46.8311 219.367 45.619 219.284 44.2052C219.159 42.0741 219.102 40.1329 219.102 38.3667C219.092 30.6076 220.223 26.2482 221.334 23.9731V72.0382C221.334 74.2268 223.108 75.9997 225.295 75.9997C227.483 75.9997 229.257 74.2268 229.257 72.0382V43.1129H230.743V72.0382C230.743 74.2268 232.517 75.9997 234.704 75.9997C236.892 75.9997 238.666 74.2268 238.666 72.0382V23.9875C238.856 24.3772 239.047 24.8242 239.236 25.3455C240.139 27.8487 240.9 31.9556 240.897 38.3674C240.897 40.1336 240.84 42.075 240.716 44.2062C240.633 45.6193 241.712 46.8321 243.126 46.9145C243.176 46.9173 243.226 46.9189 243.277 46.9189C244.624 46.9189 245.755 45.8676 245.834 44.5045C245.963 42.2833 246.023 40.2435 246.023 38.3674C246.011 28.6956 244.466 23.3432 242.359 20.1245C241.307 18.5271 240.076 17.5021 238.938 16.9349C237.842 16.3825 236.879 16.2579 236.302 16.2508C236.264 16.2492 236.227 16.2454 236.189 16.2454H223.81C223.769 16.2454 223.73 16.2495 223.69 16.2514C223.111 16.2588 222.152 16.3844 221.061 16.9349C219.337 17.7895 217.479 19.6592 216.179 22.9718C214.863 26.2975 213.98 31.1058 213.976 38.3667C213.976 40.2428 214.036 42.2836 214.166 44.5052C214.246 45.8676 215.376 46.9189 216.724 46.9193Z" fill="#3884D1"/>
<path d="M216.724 46.9193C216.774 46.9193 216.825 46.9177 216.875 46.9148C218.289 46.8311 219.367 45.619 219.284 44.2052C219.159 42.0741 219.102 40.1329 219.102 38.3667C219.092 30.6076 220.223 26.2482 221.334 23.9731V72.0382C221.334 74.2268 223.108 75.9997 225.295 75.9997C227.483 75.9997 229.257 74.2268 229.257 72.0382V43.1129H230.743V72.0382C230.743 74.2268 232.517 75.9997 234.704 75.9997C236.892 75.9997 238.666 74.2268 238.666 72.0382V23.9875C238.856 24.3772 239.047 24.8242 239.236 25.3455C240.139 27.8487 240.9 31.9556 240.897 38.3674C240.897 40.1336 240.84 42.075 240.716 44.2062C240.633 45.6193 241.712 46.8321 243.126 46.9145C243.176 46.9173 243.226 46.9189 243.277 46.9189C244.624 46.9189 245.755 45.8676 245.834 44.5045C245.963 42.2833 246.023 40.2435 246.023 38.3674C246.011 28.6956 244.466 23.3432 242.359 20.1245C241.307 18.5271 240.076 17.5021 238.938 16.9349C237.842 16.3825 236.879 16.2579 236.302 16.2508C236.264 16.2492 236.227 16.2454 236.189 16.2454H223.81C223.769 16.2454 223.73 16.2495 223.69 16.2514C223.111 16.2588 222.152 16.3844 221.061 16.9349C219.337 17.7895 217.479 19.6592 216.179 22.9718C214.863 26.2975 213.98 31.1058 213.976 38.3667C213.976 40.2428 214.036 42.2836 214.166 44.5052C214.246 45.8676 215.376 46.9189 216.724 46.9193Z" fill="url(#paint4_linear)"/>
<path d="M230 14.4192C233.981 14.4192 237.209 11.1914 237.209 7.20962C237.209 3.22786 233.981 0 230 0C226.018 0 222.79 3.22786 222.79 7.20962C222.79 11.1914 226.018 14.4192 230 14.4192Z" fill="#3884D1"/>
<path d="M230 14.4192C233.981 14.4192 237.209 11.1914 237.209 7.20962C237.209 3.22786 233.981 0 230 0C226.018 0 222.79 3.22786 222.79 7.20962C222.79 11.1914 226.018 14.4192 230 14.4192Z" fill="url(#paint5_linear)"/>
<defs>
<linearGradient id="paint0_linear" x1="37.9994" y1="16.2454" x2="37.9994" y2="75.9997" gradientUnits="userSpaceOnUse">
<stop stop-color="#296CAF"/>
<stop offset="1" stop-color="#3884D1"/>
</linearGradient>
<linearGradient id="paint1_linear" x1="37.9997" y1="0" x2="37.9997" y2="14.4192" gradientUnits="userSpaceOnUse">
<stop stop-color="#296CAF"/>
<stop offset="1" stop-color="#3884D1"/>
</linearGradient>
<linearGradient id="paint2_linear" x1="133.999" y1="16.2454" x2="133.999" y2="75.9997" gradientUnits="userSpaceOnUse">
<stop stop-color="#296CAF"/>
<stop offset="1" stop-color="#3884D1"/>
</linearGradient>
<linearGradient id="paint3_linear" x1="134" y1="0" x2="134" y2="14.4192" gradientUnits="userSpaceOnUse">
<stop stop-color="#296CAF"/>
<stop offset="1" stop-color="#3884D1"/>
</linearGradient>
<linearGradient id="paint4_linear" x1="229.999" y1="16.2454" x2="229.999" y2="75.9997" gradientUnits="userSpaceOnUse">
<stop stop-color="#296CAF"/>
<stop offset="1" stop-color="#3884D1"/>
</linearGradient>
<linearGradient id="paint5_linear" x1="230" y1="0" x2="230" y2="14.4192" gradientUnits="userSpaceOnUse">
<stop stop-color="#296CAF"/>
<stop offset="1" stop-color="#3884D1"/>
</linearGradient>
</defs>
</svg>
