<svg width="72" height="72" viewBox="0 0 72 72" fill="none" xmlns="http://www.w3.org/2000/svg">
<path d="M3.5 18.5V52.5C3.5 55.3 6.5 56 8 56H26H63C66.5 55.5 66 54.5 67 53.5C67.8 52.7 67.6667 51.1667 67.5 50.5V34L67 18.5C67.4 16.1 64.5 15.1667 63 15H8C5.2 15 3.83333 17.3333 3.5 18.5Z" fill="#28AD2D"/>
<path d="M63.4154 13.8494H7.53555C4.70963 13.8494 2.41016 16.1488 2.41016 18.9748V22.4002V29.7818V51.9755C2.41016 54.8015 4.70963 57.1002 7.53555 57.1002H63.4154C66.2413 57.1002 68.5401 54.8015 68.5401 51.9755V29.7818V22.4002V18.9748C68.5401 16.1488 66.2413 13.8494 63.4154 13.8494ZM4.53793 18.9748C4.53864 17.3216 5.88243 15.9779 7.53484 15.9779H63.4147C65.0671 15.9779 66.4109 17.3223 66.4109 18.9748V21.336H4.53793V18.9748ZM66.4116 51.9748C66.4116 53.6265 65.0671 54.971 63.4154 54.971H7.53555C5.88314 54.971 4.53864 53.6265 4.53864 51.9748V30.8453H66.4116V51.9748ZM66.4116 28.7168H4.53864V23.4637H66.4116V28.7168Z" fill="#36CF3C"/>
<path d="M12.6953 50.7758C14.7422 50.7758 16.4067 49.112 16.4067 47.0673C16.4067 45.0211 14.7422 43.3559 12.6953 43.3559C10.6498 43.3559 8.98535 45.0211 8.98535 47.0673C8.98535 49.112 10.6498 50.7758 12.6953 50.7758ZM12.6953 45.4844C13.568 45.4844 14.2782 46.1946 14.2782 47.0673C14.2782 47.9385 13.568 48.6473 12.6953 48.6473C11.8233 48.6473 11.1138 47.9385 11.1138 47.0673C11.1138 46.1946 11.8233 45.4844 12.6953 45.4844Z" fill="#36CF3C"/>
<path d="M20.6326 48.2563H50.6187C51.2069 48.2563 51.683 47.7803 51.683 47.1921C51.683 46.6039 51.2069 46.1279 50.6187 46.1279H20.6326C20.0444 46.1279 19.5684 46.6039 19.5684 47.1921C19.5684 47.7803 20.0444 48.2563 20.6326 48.2563Z" fill="#36CF3C"/>
</svg>
