<svg width="60" height="60" viewBox="0 0 60 60" fill="none" xmlns="http://www.w3.org/2000/svg">
<path d="M29.9998 51.5999C22.7398 51.5999 16.7998 45.6599 16.7998 38.3999V21.5999C16.7998 14.3399 22.7398 8.3999 29.9998 8.3999C37.2598 8.3999 43.1998 14.3399 43.1998 21.5999V38.3999C43.1998 45.6599 37.2598 51.5999 29.9998 51.5999ZM29.9998 10.7999C24.0598 10.7999 19.1998 15.6599 19.1998 21.5999V38.3999C19.1998 44.3399 24.0598 49.1999 29.9998 49.1999C35.9398 49.1999 40.7998 44.3399 40.7998 38.3999V21.5999C40.7998 15.6599 35.9398 10.7999 29.9998 10.7999Z" fill="white"/>
<path d="M29.9998 23.4C29.3398 23.4 28.7998 22.86 28.7998 22.2V17.4C28.7998 16.74 29.3398 16.2 29.9998 16.2C30.6598 16.2 31.1998 16.74 31.1998 17.4V22.2C31.1998 22.86 30.6598 23.4 29.9998 23.4Z" fill="white"/>
</svg>
