<svg width="72" height="72" viewBox="0 0 72 72" fill="none" xmlns="http://www.w3.org/2000/svg">
<path d="M54.676 35.0087L28.276 17.0087C27.9076 16.7591 27.4324 16.7315 27.0388 16.9391C26.6464 17.1467 26.4004 17.5547 26.4004 17.9999V53.9999C26.4004 54.4451 26.6464 54.8531 27.04 55.0607C27.2152 55.1543 27.4084 55.1999 27.6004 55.1999C27.8368 55.1999 28.0732 55.1291 28.276 54.9911L54.676 36.9911C55.0036 36.7679 55.2004 36.3971 55.2004 35.9999C55.2004 35.6027 55.0036 35.2319 54.676 35.0087ZM28.8004 51.7283V20.2715L51.8704 35.9999L28.8004 51.7283Z" fill="white"/>
<path d="M36 0C16.1496 0 0 16.1496 0 36C0 55.8504 16.1496 72 36 72C55.8504 72 72 55.8504 72 36C72 16.1496 55.8504 0 36 0ZM36 69.6C17.4732 69.6 2.4 54.5268 2.4 36C2.4 17.4732 17.4732 2.4 36 2.4C54.5268 2.4 69.6 17.4732 69.6 36C69.6 54.5268 54.5268 69.6 36 69.6Z" fill="white"/>
</svg>
